<svg width="344" height="57" viewBox="0 0 344 57" fill="none" xmlns="http://www.w3.org/2000/svg">
<path d="M99.5725 35.1211V20.3711H104.343C105.329 20.3711 106.226 20.5511 107.033 20.9111C107.846 21.2644 108.543 21.7678 109.123 22.4211C109.709 23.0678 110.159 23.8411 110.473 24.7411C110.786 25.6411 110.943 26.6344 110.943 27.7211C110.943 28.8078 110.786 29.8044 110.473 30.7111C110.159 31.6178 109.709 32.4011 109.123 33.0611C108.543 33.7144 107.846 34.2211 107.033 34.5811C106.226 34.9411 105.329 35.1211 104.343 35.1211H99.5725ZM102.693 34.2011L101.293 32.7211H103.943C104.663 32.7211 105.313 32.5211 105.893 32.1211C106.479 31.7144 106.943 31.1378 107.283 30.3911C107.623 29.6378 107.793 28.7478 107.793 27.7211C107.793 26.6878 107.623 25.8044 107.283 25.0711C106.943 24.3311 106.479 23.7644 105.893 23.3711C105.313 22.9711 104.663 22.7711 103.943 22.7711H101.293L102.693 21.2911V34.2011ZM112.861 35.1211V24.5011H115.931V35.1211H112.861ZM114.391 22.7711C113.911 22.7711 113.491 22.6444 113.131 22.3911C112.777 22.1378 112.601 21.7811 112.601 21.3211C112.601 20.8544 112.777 20.4944 113.131 20.2411C113.491 19.9878 113.911 19.8611 114.391 19.8611C114.877 19.8611 115.297 19.9878 115.651 20.2411C116.011 20.4944 116.191 20.8544 116.191 21.3211C116.191 21.7878 116.011 22.1478 115.651 22.4011C115.297 22.6478 114.877 22.7711 114.391 22.7711ZM122.635 35.3611C122.002 35.3611 121.392 35.2878 120.805 35.1411C120.218 34.9944 119.692 34.7778 119.225 34.4911C118.765 34.2044 118.398 33.8478 118.125 33.4211C117.858 32.9878 117.725 32.4844 117.725 31.9111C117.725 31.8844 117.725 31.8544 117.725 31.8211C117.725 31.7811 117.725 31.7511 117.725 31.7311H120.805C120.805 31.7511 120.805 31.7744 120.805 31.8011C120.805 31.8211 120.805 31.8444 120.805 31.8711C120.805 32.2578 120.975 32.5411 121.315 32.7211C121.662 32.9011 122.128 32.9911 122.715 32.9911C123.022 32.9911 123.315 32.9611 123.595 32.9011C123.882 32.8344 124.115 32.7311 124.295 32.5911C124.482 32.4444 124.575 32.2611 124.575 32.0411C124.575 31.6878 124.378 31.4378 123.985 31.2911C123.598 31.1444 122.975 30.9978 122.115 30.8511C121.628 30.7711 121.135 30.6578 120.635 30.5111C120.135 30.3644 119.675 30.1711 119.255 29.9311C118.835 29.6844 118.498 29.3744 118.245 29.0011C117.992 28.6211 117.865 28.1611 117.865 27.6211C117.865 26.9011 118.082 26.2944 118.515 25.8011C118.955 25.3078 119.538 24.9344 120.265 24.6811C120.992 24.4278 121.792 24.3011 122.665 24.3011C123.498 24.3011 124.275 24.4411 124.995 24.7211C125.715 24.9944 126.298 25.3911 126.745 25.9111C127.192 26.4244 127.415 27.0444 127.415 27.7711C127.415 27.7844 127.415 27.8044 127.415 27.8311C127.415 27.8578 127.415 27.8844 127.415 27.9111H124.365C124.365 27.8844 124.365 27.8611 124.365 27.8411C124.365 27.8211 124.365 27.8044 124.365 27.7911C124.365 27.5244 124.278 27.3078 124.105 27.1411C123.938 26.9744 123.725 26.8511 123.465 26.7711C123.205 26.6844 122.935 26.6411 122.655 26.6411C122.402 26.6411 122.138 26.6711 121.865 26.7311C121.598 26.7844 121.372 26.8778 121.185 27.0111C120.998 27.1378 120.905 27.3178 120.905 27.5511C120.905 27.7778 121.005 27.9644 121.205 28.1111C121.405 28.2511 121.685 28.3678 122.045 28.4611C122.405 28.5478 122.822 28.6311 123.295 28.7111C123.742 28.7844 124.212 28.8878 124.705 29.0211C125.205 29.1478 125.672 29.3311 126.105 29.5711C126.545 29.8044 126.898 30.1144 127.165 30.5011C127.438 30.8811 127.575 31.3644 127.575 31.9511C127.575 32.5578 127.435 33.0778 127.155 33.5111C126.875 33.9444 126.495 34.2978 126.015 34.5711C125.542 34.8378 125.012 35.0344 124.425 35.1611C123.845 35.2944 123.248 35.3611 122.635 35.3611ZM134.854 35.3611C133.687 35.3611 132.664 35.1278 131.784 34.6611C130.904 34.1878 130.221 33.5311 129.734 32.6911C129.254 31.8511 129.014 30.8811 129.014 29.7811C129.014 28.6678 129.254 27.7044 129.734 26.8911C130.221 26.0711 130.904 25.4344 131.784 24.9811C132.664 24.5278 133.687 24.3011 134.854 24.3011C135.727 24.3011 136.501 24.4311 137.174 24.6911C137.847 24.9444 138.411 25.2811 138.864 25.7011C139.317 26.1211 139.661 26.5811 139.894 27.0811C140.127 27.5811 140.244 28.0778 140.244 28.5711C140.244 28.5778 140.244 28.5911 140.244 28.6111C140.244 28.6244 140.244 28.6378 140.244 28.6511H137.174C137.174 28.6111 137.171 28.5744 137.164 28.5411C137.164 28.5011 137.157 28.4611 137.144 28.4211C137.091 28.1411 136.974 27.8778 136.794 27.6311C136.614 27.3844 136.361 27.1844 136.034 27.0311C135.714 26.8711 135.314 26.7911 134.834 26.7911C134.321 26.7911 133.861 26.9044 133.454 27.1311C133.054 27.3578 132.737 27.6944 132.504 28.1411C132.271 28.5811 132.154 29.1278 132.154 29.7811C132.154 30.4211 132.271 30.9744 132.504 31.4411C132.737 31.9011 133.054 32.2544 133.454 32.5011C133.861 32.7478 134.321 32.8711 134.834 32.8711C135.361 32.8711 135.791 32.7911 136.124 32.6311C136.457 32.4644 136.707 32.2444 136.874 31.9711C137.041 31.6911 137.141 31.3844 137.174 31.0511H140.244C140.244 31.5444 140.127 32.0478 139.894 32.5611C139.667 33.0678 139.327 33.5311 138.874 33.9511C138.427 34.3711 137.867 34.7111 137.194 34.9711C136.521 35.2311 135.741 35.3611 134.854 35.3611ZM147.5 35.3511C146.353 35.3511 145.343 35.1144 144.47 34.6411C143.596 34.1678 142.913 33.5178 142.42 32.6911C141.933 31.8578 141.69 30.8978 141.69 29.8111C141.69 28.7311 141.933 27.7778 142.42 26.9511C142.913 26.1178 143.596 25.4711 144.47 25.0111C145.343 24.5444 146.353 24.3111 147.5 24.3111C148.646 24.3111 149.656 24.5444 150.53 25.0111C151.403 25.4711 152.083 26.1178 152.57 26.9511C153.063 27.7778 153.31 28.7311 153.31 29.8111C153.31 30.8978 153.063 31.8578 152.57 32.6911C152.083 33.5178 151.403 34.1678 150.53 34.6411C149.656 35.1144 148.646 35.3511 147.5 35.3511ZM147.5 32.8911C148.04 32.8911 148.51 32.7644 148.91 32.5111C149.31 32.2578 149.62 31.9011 149.84 31.4411C150.06 30.9744 150.17 30.4311 150.17 29.8111C150.17 29.1911 150.06 28.6544 149.84 28.2011C149.62 27.7411 149.31 27.3878 148.91 27.1411C148.51 26.8944 148.04 26.7711 147.5 26.7711C146.966 26.7711 146.496 26.8944 146.09 27.1411C145.69 27.3878 145.38 27.7411 145.16 28.2011C144.94 28.6544 144.83 29.1911 144.83 29.8111C144.83 30.4311 144.94 30.9744 145.16 31.4411C145.38 31.9011 145.69 32.2578 146.09 32.5111C146.496 32.7644 146.966 32.8911 147.5 32.8911ZM164.664 24.5011L161.444 35.1211H157.264L153.974 24.5011H157.174L159.594 34.1811H159.114L161.454 24.5011H164.664ZM166.905 30.7411V28.6911H173.945L173.645 29.2111C173.645 29.1578 173.645 29.1078 173.645 29.0611C173.645 29.0078 173.645 28.9578 173.645 28.9111C173.645 28.5311 173.555 28.1678 173.375 27.8211C173.195 27.4678 172.915 27.1811 172.535 26.9611C172.162 26.7344 171.682 26.6211 171.095 26.6211C170.508 26.6211 170.002 26.7478 169.575 27.0011C169.155 27.2478 168.832 27.6044 168.605 28.0711C168.385 28.5378 168.275 29.1011 168.275 29.7611C168.275 30.4411 168.382 31.0244 168.595 31.5111C168.815 31.9911 169.138 32.3611 169.565 32.6211C169.998 32.8811 170.535 33.0111 171.175 33.0111C171.588 33.0111 171.945 32.9744 172.245 32.9011C172.545 32.8211 172.788 32.7211 172.975 32.6011C173.168 32.4811 173.315 32.3478 173.415 32.2011C173.515 32.0544 173.575 31.9111 173.595 31.7711H176.655C176.615 32.2178 176.462 32.6578 176.195 33.0911C175.928 33.5178 175.558 33.9044 175.085 34.2511C174.612 34.5911 174.035 34.8611 173.355 35.0611C172.682 35.2611 171.912 35.3611 171.045 35.3611C169.872 35.3611 168.848 35.1278 167.975 34.6611C167.102 34.1878 166.425 33.5378 165.945 32.7111C165.465 31.8778 165.225 30.9178 165.225 29.8311C165.225 28.7311 165.468 27.7678 165.955 26.9411C166.448 26.1078 167.132 25.4611 168.005 25.0011C168.885 24.5344 169.902 24.3011 171.055 24.3011C172.235 24.3011 173.255 24.5378 174.115 25.0111C174.975 25.4778 175.638 26.1344 176.105 26.9811C176.572 27.8211 176.805 28.8011 176.805 29.9211C176.805 30.0878 176.802 30.2478 176.795 30.4011C176.788 30.5544 176.778 30.6678 176.765 30.7411H166.905ZM178.742 35.1211V24.5011H181.852V28.1611L181.212 27.7611C181.286 27.2611 181.419 26.8011 181.612 26.3811C181.806 25.9611 182.056 25.5978 182.362 25.2911C182.669 24.9778 183.032 24.7344 183.452 24.5611C183.879 24.3878 184.366 24.3011 184.912 24.3011C185.339 24.3011 185.672 24.3344 185.912 24.4011C186.159 24.4611 186.312 24.5078 186.372 24.5411L185.862 27.3211C185.802 27.2878 185.669 27.2344 185.462 27.1611C185.256 27.0878 184.989 27.0511 184.662 27.0511C184.129 27.0511 183.682 27.1411 183.322 27.3211C182.962 27.5011 182.672 27.7411 182.452 28.0411C182.239 28.3344 182.086 28.6611 181.992 29.0211C181.899 29.3811 181.852 29.7444 181.852 30.1111V35.1211H178.742ZM199.571 35.1211V31.0111C199.571 30.6178 199.571 30.2778 199.571 29.9911C199.571 29.6978 199.571 29.4544 199.571 29.2611C199.571 28.9878 199.555 28.7178 199.521 28.4511C199.495 28.1844 199.428 27.9378 199.321 27.7111C199.221 27.4778 199.065 27.2944 198.851 27.1611C198.638 27.0211 198.348 26.9511 197.981 26.9511C197.641 26.9511 197.348 27.0244 197.101 27.1711C196.855 27.3111 196.651 27.5078 196.491 27.7611C196.338 28.0078 196.225 28.2944 196.151 28.6211C196.078 28.9411 196.041 29.2778 196.041 29.6311L195.191 28.9311C195.191 28.0311 195.355 27.2344 195.681 26.5411C196.008 25.8411 196.471 25.2944 197.071 24.9011C197.678 24.5011 198.395 24.3011 199.221 24.3011C200.108 24.3011 200.798 24.4911 201.291 24.8711C201.791 25.2444 202.141 25.7444 202.341 26.3711C202.548 26.9911 202.651 27.6778 202.651 28.4311C202.651 28.7178 202.651 29.1044 202.651 29.5911C202.651 30.0778 202.651 30.6611 202.651 31.3411V35.1211H199.571ZM192.941 35.1211V24.5011H196.041V35.1211H192.941ZM206.171 35.1211V31.0211C206.171 30.6144 206.171 30.2644 206.171 29.9711C206.171 29.6778 206.171 29.4344 206.171 29.2411C206.171 28.9478 206.155 28.6678 206.121 28.4011C206.088 28.1278 206.018 27.8811 205.911 27.6611C205.805 27.4411 205.645 27.2678 205.431 27.1411C205.218 27.0144 204.928 26.9511 204.561 26.9511C204.221 26.9511 203.928 27.0244 203.681 27.1711C203.441 27.3111 203.245 27.5044 203.091 27.7511C202.938 27.9978 202.825 28.2778 202.751 28.5911C202.685 28.9044 202.651 29.2311 202.651 29.5711L201.801 28.8811C201.801 27.9944 201.961 27.2078 202.281 26.5211C202.608 25.8344 203.068 25.2944 203.661 24.9011C204.261 24.5011 204.978 24.3011 205.811 24.3011C206.678 24.3011 207.361 24.4844 207.861 24.8511C208.368 25.2178 208.728 25.7078 208.941 26.3211C209.161 26.9278 209.271 27.6078 209.271 28.3611C209.271 28.6611 209.271 29.0478 209.271 29.5211C209.271 29.9944 209.271 30.5711 209.271 31.2511V35.1211H206.171ZM216.914 35.3511C215.767 35.3511 214.757 35.1144 213.884 34.6411C213.01 34.1678 212.327 33.5178 211.834 32.6911C211.347 31.8578 211.104 30.8978 211.104 29.8111C211.104 28.7311 211.347 27.7778 211.834 26.9511C212.327 26.1178 213.01 25.4711 213.884 25.0111C214.757 24.5444 215.767 24.3111 216.914 24.3111C218.06 24.3111 219.07 24.5444 219.944 25.0111C220.817 25.4711 221.497 26.1178 221.984 26.9511C222.477 27.7778 222.724 28.7311 222.724 29.8111C222.724 30.8978 222.477 31.8578 221.984 32.6911C221.497 33.5178 220.817 34.1678 219.944 34.6411C219.07 35.1144 218.06 35.3511 216.914 35.3511ZM216.914 32.8911C217.454 32.8911 217.924 32.7644 218.324 32.5111C218.724 32.2578 219.034 31.9011 219.254 31.4411C219.474 30.9744 219.584 30.4311 219.584 29.8111C219.584 29.1911 219.474 28.6544 219.254 28.2011C219.034 27.7411 218.724 27.3878 218.324 27.1411C217.924 26.8944 217.454 26.7711 216.914 26.7711C216.38 26.7711 215.91 26.8944 215.504 27.1411C215.104 27.3878 214.794 27.7411 214.574 28.2011C214.354 28.6544 214.244 29.1911 214.244 29.8111C214.244 30.4311 214.354 30.9744 214.574 31.4411C214.794 31.9011 215.104 32.2578 215.504 32.5111C215.91 32.7644 216.38 32.8911 216.914 32.8911ZM224.66 35.1211V24.5011H227.77V28.1611L227.13 27.7611C227.204 27.2611 227.337 26.8011 227.53 26.3811C227.724 25.9611 227.974 25.5978 228.28 25.2911C228.587 24.9778 228.95 24.7344 229.37 24.5611C229.797 24.3878 230.284 24.3011 230.83 24.3011C231.257 24.3011 231.59 24.3344 231.83 24.4011C232.077 24.4611 232.23 24.5078 232.29 24.5411L231.78 27.3211C231.72 27.2878 231.587 27.2344 231.38 27.1611C231.174 27.0878 230.907 27.0511 230.58 27.0511C230.047 27.0511 229.6 27.1411 229.24 27.3211C228.88 27.5011 228.59 27.7411 228.37 28.0411C228.157 28.3344 228.004 28.6611 227.91 29.0211C227.817 29.3811 227.77 29.7444 227.77 30.1111V35.1211H224.66ZM234.854 30.7411V28.6911H241.894L241.594 29.2111C241.594 29.1578 241.594 29.1078 241.594 29.0611C241.594 29.0078 241.594 28.9578 241.594 28.9111C241.594 28.5311 241.504 28.1678 241.324 27.8211C241.144 27.4678 240.864 27.1811 240.484 26.9611C240.111 26.7344 239.631 26.6211 239.044 26.6211C238.457 26.6211 237.951 26.7478 237.524 27.0011C237.104 27.2478 236.781 27.6044 236.554 28.0711C236.334 28.5378 236.224 29.1011 236.224 29.7611C236.224 30.4411 236.331 31.0244 236.544 31.5111C236.764 31.9911 237.087 32.3611 237.514 32.6211C237.947 32.8811 238.484 33.0111 239.124 33.0111C239.537 33.0111 239.894 32.9744 240.194 32.9011C240.494 32.8211 240.737 32.7211 240.924 32.6011C241.117 32.4811 241.264 32.3478 241.364 32.2011C241.464 32.0544 241.524 31.9111 241.544 31.7711H244.604C244.564 32.2178 244.411 32.6578 244.144 33.0911C243.877 33.5178 243.507 33.9044 243.034 34.2511C242.561 34.5911 241.984 34.8611 241.304 35.0611C240.631 35.2611 239.861 35.3611 238.994 35.3611C237.821 35.3611 236.797 35.1278 235.924 34.6611C235.051 34.1878 234.374 33.5378 233.894 32.7111C233.414 31.8778 233.174 30.9178 233.174 29.8311C233.174 28.7311 233.417 27.7678 233.904 26.9411C234.397 26.1078 235.081 25.4611 235.954 25.0011C236.834 24.5344 237.851 24.3011 239.004 24.3011C240.184 24.3011 241.204 24.5378 242.064 25.0111C242.924 25.4778 243.587 26.1344 244.054 26.9811C244.521 27.8211 244.754 28.8011 244.754 29.9211C244.754 30.0878 244.751 30.2478 244.744 30.4011C244.737 30.5544 244.727 30.6678 244.714 30.7411H234.854Z" fill="#555555"/>
<rect x="1.35254" y="0.621094" width="342" height="55" rx="7.5" stroke="url(#paint0_linear_3553_5023)"/>
<defs>
<linearGradient id="paint0_linear_3553_5023" x1="0.852539" y1="0.121094" x2="57.8737" y2="158.853" gradientUnits="userSpaceOnUse">
<stop stop-color="#0038F5"/>
<stop offset="1" stop-color="#9F03FF"/>
</linearGradient>
</defs>
</svg>
