<svg width="343" height="56" viewBox="0 0 343 56" fill="none" xmlns="http://www.w3.org/2000/svg">
<rect width="343" height="56" rx="8" fill="url(#paint0_linear_209_887)"/>
<path d="M136.39 22.5547L131.23 17.3602L126.07 22.5547" stroke="#FCFCFC" stroke-width="2"/>
<line y1="-1" x2="13" y2="-1" transform="matrix(0 1 1 0 132.229 18.3496)" stroke="#FCFCFC" stroke-width="2"/>
<path d="M122.5 29V39H139.5V29" stroke="#FCFCFC" stroke-width="2"/>
<path d="M163.78 29.67C163.78 31.5367 163.287 32.9333 162.3 33.86C161.313 34.78 159.963 35.24 158.25 35.24C156.53 35.24 155.177 34.78 154.19 33.86C153.21 32.9333 152.72 31.5367 152.72 29.67C152.72 29.4167 152.72 29.1467 152.72 28.86C152.72 28.5733 152.72 28.2733 152.72 27.96V20.25H155.83V28.4C155.83 28.6533 155.83 28.89 155.83 29.11C155.83 29.33 155.83 29.5333 155.83 29.72C155.83 30.76 156.02 31.5267 156.4 32.02C156.78 32.5067 157.397 32.75 158.25 32.75C159.097 32.75 159.713 32.5067 160.1 32.02C160.487 31.5267 160.68 30.76 160.68 29.72V20.25H163.78V29.67ZM166.226 39.37V24.38H169.336V39.37H166.226ZM172.616 35.24C171.776 35.24 171.006 35.0167 170.306 34.57C169.606 34.1167 169.046 33.51 168.626 32.75C168.206 31.9833 167.996 31.1233 167.996 30.17C167.996 30.1433 167.996 30.12 167.996 30.1C167.996 30.0733 167.996 30.0433 167.996 30.01L169.336 29.98C169.336 30 169.336 30.02 169.336 30.04C169.336 30.06 169.336 30.08 169.336 30.1C169.336 30.5933 169.456 31.0267 169.696 31.4C169.936 31.7667 170.246 32.05 170.626 32.25C171.006 32.45 171.402 32.55 171.816 32.55C172.496 32.55 173.086 32.3167 173.586 31.85C174.092 31.3767 174.346 30.64 174.346 29.64C174.346 28.64 174.096 27.9133 173.596 27.46C173.096 27 172.502 26.77 171.816 26.77C171.402 26.77 171.006 26.87 170.626 27.07C170.246 27.2633 169.936 27.54 169.696 27.9C169.456 28.26 169.336 28.69 169.336 29.19L167.996 29.11C167.996 28.15 168.206 27.3033 168.626 26.57C169.046 25.83 169.606 25.2467 170.306 24.82C171.006 24.3933 171.776 24.18 172.616 24.18C173.476 24.18 174.279 24.3933 175.026 24.82C175.772 25.24 176.376 25.8567 176.836 26.67C177.302 27.4833 177.536 28.4733 177.536 29.64C177.536 30.86 177.309 31.8867 176.856 32.72C176.402 33.5533 175.802 34.1833 175.056 34.61C174.309 35.03 173.496 35.24 172.616 35.24ZM182.678 19.37V35H179.618V19.37H182.678ZM190.471 35.23C189.325 35.23 188.315 34.9933 187.441 34.52C186.568 34.0467 185.885 33.3967 185.391 32.57C184.905 31.7367 184.661 30.7767 184.661 29.69C184.661 28.61 184.905 27.6567 185.391 26.83C185.885 25.9967 186.568 25.35 187.441 24.89C188.315 24.4233 189.325 24.19 190.471 24.19C191.618 24.19 192.628 24.4233 193.501 24.89C194.375 25.35 195.055 25.9967 195.541 26.83C196.035 27.6567 196.281 28.61 196.281 29.69C196.281 30.7767 196.035 31.7367 195.541 32.57C195.055 33.3967 194.375 34.0467 193.501 34.52C192.628 34.9933 191.618 35.23 190.471 35.23ZM190.471 32.77C191.011 32.77 191.481 32.6433 191.881 32.39C192.281 32.1367 192.591 31.78 192.811 31.32C193.031 30.8533 193.141 30.31 193.141 29.69C193.141 29.07 193.031 28.5333 192.811 28.08C192.591 27.62 192.281 27.2667 191.881 27.02C191.481 26.7733 191.011 26.65 190.471 26.65C189.938 26.65 189.468 26.7733 189.061 27.02C188.661 27.2667 188.351 27.62 188.131 28.08C187.911 28.5333 187.801 29.07 187.801 29.69C187.801 30.31 187.911 30.8533 188.131 31.32C188.351 31.78 188.661 32.1367 189.061 32.39C189.468 32.6433 189.938 32.77 190.471 32.77ZM201.818 35.22C201.044 35.22 200.354 35.0967 199.748 34.85C199.148 34.6033 198.678 34.2467 198.338 33.78C197.998 33.3133 197.828 32.7467 197.828 32.08C197.828 31.3267 198.034 30.7133 198.448 30.24C198.861 29.7667 199.408 29.4067 200.088 29.16C200.774 28.9067 201.518 28.74 202.318 28.66C203.484 28.5467 204.288 28.4433 204.728 28.35C205.174 28.2567 205.398 28.0933 205.398 27.86C205.398 27.8533 205.398 27.8467 205.398 27.84C205.398 27.4467 205.208 27.1367 204.828 26.91C204.454 26.6833 203.931 26.57 203.258 26.57C202.544 26.57 201.998 26.7 201.618 26.96C201.244 27.2133 201.058 27.6033 201.058 28.13H198.008C198.008 27.2767 198.238 26.5567 198.698 25.97C199.164 25.3833 199.794 24.94 200.588 24.64C201.381 24.3333 202.278 24.18 203.278 24.18C204.211 24.18 205.074 24.3233 205.868 24.61C206.661 24.89 207.298 25.3133 207.778 25.88C208.264 26.4467 208.508 27.1667 208.508 28.04C208.508 28.18 208.508 28.32 208.508 28.46C208.508 28.5933 208.508 28.73 208.508 28.87V32.63C208.508 32.9033 208.514 33.1667 208.528 33.42C208.548 33.6667 208.588 33.8933 208.648 34.1C208.714 34.3333 208.798 34.5267 208.898 34.68C208.998 34.8333 209.081 34.94 209.148 35H206.098C206.051 34.9533 205.978 34.8567 205.878 34.71C205.784 34.5633 205.704 34.3933 205.638 34.2C205.558 33.9667 205.498 33.7333 205.458 33.5C205.424 33.26 205.408 32.98 205.408 32.66L206.048 33.1C205.861 33.54 205.558 33.92 205.138 34.24C204.724 34.5533 204.231 34.7967 203.658 34.97C203.091 35.1367 202.478 35.22 201.818 35.22ZM202.648 32.9C203.134 32.9 203.588 32.8133 204.008 32.64C204.434 32.46 204.781 32.18 205.048 31.8C205.314 31.42 205.448 30.9233 205.448 30.31V29.24L206.218 29.99C205.778 30.15 205.268 30.2833 204.688 30.39C204.114 30.49 203.541 30.57 202.968 30.63C202.288 30.6967 201.778 30.8133 201.438 30.98C201.104 31.14 200.938 31.4133 200.938 31.8C200.938 32.1667 201.081 32.4433 201.368 32.63C201.654 32.81 202.081 32.9 202.648 32.9ZM215.216 35.24C214.33 35.24 213.513 35.03 212.766 34.61C212.02 34.1833 211.42 33.5533 210.966 32.72C210.513 31.8867 210.286 30.86 210.286 29.64C210.286 28.4733 210.516 27.4833 210.976 26.67C211.443 25.8567 212.05 25.24 212.796 24.82C213.55 24.3933 214.356 24.18 215.216 24.18C216.056 24.18 216.823 24.3933 217.516 24.82C218.216 25.2467 218.776 25.83 219.196 26.57C219.616 27.3033 219.826 28.15 219.826 29.11C219.826 29.1433 219.826 29.1767 219.826 29.21C219.826 29.2367 219.826 29.2667 219.826 29.3L218.486 29.32C218.486 29.3 218.486 29.28 218.486 29.26C218.486 29.2333 218.486 29.21 218.486 29.19C218.486 28.69 218.366 28.26 218.126 27.9C217.886 27.54 217.576 27.2633 217.196 27.07C216.816 26.87 216.42 26.77 216.006 26.77C215.32 26.77 214.726 27 214.226 27.46C213.726 27.9133 213.476 28.64 213.476 29.64C213.476 30.64 213.726 31.3767 214.226 31.85C214.733 32.3167 215.326 32.55 216.006 32.55C216.433 32.55 216.836 32.45 217.216 32.25C217.596 32.0433 217.903 31.7533 218.136 31.38C218.37 31.0067 218.486 30.5667 218.486 30.06L219.826 30.13C219.826 31.0833 219.62 31.9467 219.206 32.72C218.8 33.4867 218.246 34.1 217.546 34.56C216.853 35.0133 216.076 35.24 215.216 35.24ZM218.486 35V19.37H221.596V35H218.486Z" fill="#FCFCFC"/>
<defs>
<linearGradient id="paint0_linear_209_887" x1="0" y1="0" x2="57.0211" y2="158.732" gradientUnits="userSpaceOnUse">
<stop stop-color="#0038F5"/>
<stop offset="1" stop-color="#9F03FF"/>
</linearGradient>
</defs>
</svg>
