<svg width="344" height="57" viewBox="0 0 344 57" fill="none" xmlns="http://www.w3.org/2000/svg">
<rect x="0.852539" y="0.121094" width="343" height="56" rx="8" fill="url(#paint0_linear_3553_5020)"/>
<path d="M128.793 22.7711L130.193 21.2911V27.4011L129.493 26.5211H134.933V28.9211H129.493L130.193 28.0411V34.2011L128.793 32.7211H136.043V35.1211H127.073V20.3711H136.043V22.7711H128.793ZM141.268 35.3411C140.495 35.3411 139.805 35.2178 139.198 34.9711C138.598 34.7244 138.128 34.3678 137.788 33.9011C137.448 33.4344 137.278 32.8678 137.278 32.2011C137.278 31.4478 137.485 30.8344 137.898 30.3611C138.311 29.8878 138.858 29.5278 139.538 29.2811C140.225 29.0278 140.968 28.8611 141.768 28.7811C142.935 28.6678 143.738 28.5644 144.178 28.4711C144.625 28.3778 144.848 28.2144 144.848 27.9811C144.848 27.9744 144.848 27.9678 144.848 27.9611C144.848 27.5678 144.658 27.2578 144.278 27.0311C143.905 26.8044 143.381 26.6911 142.708 26.6911C141.995 26.6911 141.448 26.8211 141.068 27.0811C140.695 27.3344 140.508 27.7244 140.508 28.2511H137.458C137.458 27.3978 137.688 26.6778 138.148 26.0911C138.615 25.5044 139.245 25.0611 140.038 24.7611C140.831 24.4544 141.728 24.3011 142.728 24.3011C143.661 24.3011 144.525 24.4444 145.318 24.7311C146.111 25.0111 146.748 25.4344 147.228 26.0011C147.715 26.5678 147.958 27.2878 147.958 28.1611C147.958 28.3011 147.958 28.4411 147.958 28.5811C147.958 28.7144 147.958 28.8511 147.958 28.9911V32.7511C147.958 33.0244 147.965 33.2878 147.978 33.5411C147.998 33.7878 148.038 34.0144 148.098 34.2211C148.165 34.4544 148.248 34.6478 148.348 34.8011C148.448 34.9544 148.531 35.0611 148.598 35.1211H145.548C145.501 35.0744 145.428 34.9778 145.328 34.8311C145.235 34.6844 145.155 34.5144 145.088 34.3211C145.008 34.0878 144.948 33.8544 144.908 33.6211C144.875 33.3811 144.858 33.1011 144.858 32.7811L145.498 33.2211C145.311 33.6611 145.008 34.0411 144.588 34.3611C144.175 34.6744 143.681 34.9178 143.108 35.0911C142.541 35.2578 141.928 35.3411 141.268 35.3411ZM142.098 33.0211C142.585 33.0211 143.038 32.9344 143.458 32.7611C143.885 32.5811 144.231 32.3011 144.498 31.9211C144.765 31.5411 144.898 31.0444 144.898 30.4311V29.3611L145.668 30.1111C145.228 30.2711 144.718 30.4044 144.138 30.5111C143.565 30.6111 142.991 30.6911 142.418 30.7511C141.738 30.8178 141.228 30.9344 140.888 31.1011C140.555 31.2611 140.388 31.5344 140.388 31.9211C140.388 32.2878 140.531 32.5644 140.818 32.7511C141.105 32.9311 141.531 33.0211 142.098 33.0211ZM150.227 35.1211V24.5011H153.337V28.1611L152.697 27.7611C152.77 27.2611 152.903 26.8011 153.097 26.3811C153.29 25.9611 153.54 25.5978 153.847 25.2911C154.153 24.9778 154.517 24.7344 154.937 24.5611C155.363 24.3878 155.85 24.3011 156.397 24.3011C156.823 24.3011 157.157 24.3344 157.397 24.4011C157.643 24.4611 157.797 24.5078 157.857 24.5411L157.347 27.3211C157.287 27.2878 157.153 27.2344 156.947 27.1611C156.74 27.0878 156.473 27.0511 156.147 27.0511C155.613 27.0511 155.167 27.1411 154.807 27.3211C154.447 27.5011 154.157 27.7411 153.937 28.0411C153.723 28.3344 153.57 28.6611 153.477 29.0211C153.383 29.3811 153.337 29.7444 153.337 30.1111V35.1211H150.227ZM166.906 35.1211V30.6111C166.906 30.3578 166.906 30.1278 166.906 29.9211C166.906 29.7144 166.906 29.5278 166.906 29.3611C166.906 28.9211 166.849 28.5211 166.736 28.1611C166.622 27.7944 166.419 27.5011 166.126 27.2811C165.832 27.0611 165.409 26.9511 164.856 26.9511C164.376 26.9511 163.959 27.0611 163.606 27.2811C163.259 27.5011 162.992 27.8078 162.806 28.2011C162.619 28.5944 162.526 29.0478 162.526 29.5611L161.666 28.9411C161.666 28.0211 161.866 27.2144 162.266 26.5211C162.666 25.8278 163.206 25.2844 163.886 24.8911C164.572 24.4978 165.332 24.3011 166.166 24.3011C167.039 24.3011 167.756 24.4778 168.316 24.8311C168.882 25.1778 169.302 25.6644 169.576 26.2911C169.856 26.9111 169.996 27.6378 169.996 28.4711C169.996 28.8111 169.996 29.1911 169.996 29.6111C169.996 30.0311 169.996 30.4611 169.996 30.9011V35.1211H166.906ZM159.426 35.1211V24.5011H162.526V35.1211H159.426ZM184.796 35.1211V30.6111C184.796 30.3578 184.796 30.1278 184.796 29.9211C184.796 29.7144 184.796 29.5278 184.796 29.3611C184.796 28.9211 184.74 28.5211 184.626 28.1611C184.513 27.7944 184.31 27.5011 184.016 27.2811C183.723 27.0611 183.3 26.9511 182.746 26.9511C182.266 26.9511 181.85 27.0611 181.496 27.2811C181.15 27.5011 180.883 27.8078 180.696 28.2011C180.51 28.5944 180.416 29.0478 180.416 29.5611L179.556 28.9411C179.556 28.0211 179.756 27.2144 180.156 26.5211C180.556 25.8278 181.096 25.2844 181.776 24.8911C182.463 24.4978 183.223 24.3011 184.056 24.3011C184.93 24.3011 185.646 24.4778 186.206 24.8311C186.773 25.1778 187.193 25.6644 187.466 26.2911C187.746 26.9111 187.886 27.6378 187.886 28.4711C187.886 28.8111 187.886 29.1911 187.886 29.6111C187.886 30.0311 187.886 30.4611 187.886 30.9011V35.1211H184.796ZM177.316 35.1211V24.5011H180.416V35.1211H177.316ZM195.527 35.3511C194.38 35.3511 193.37 35.1144 192.497 34.6411C191.624 34.1678 190.94 33.5178 190.447 32.6911C189.96 31.8578 189.717 30.8978 189.717 29.8111C189.717 28.7311 189.96 27.7778 190.447 26.9511C190.94 26.1178 191.624 25.4711 192.497 25.0111C193.37 24.5444 194.38 24.3111 195.527 24.3111C196.674 24.3111 197.684 24.5444 198.557 25.0111C199.43 25.4711 200.11 26.1178 200.597 26.9511C201.09 27.7778 201.337 28.7311 201.337 29.8111C201.337 30.8978 201.09 31.8578 200.597 32.6911C200.11 33.5178 199.43 34.1678 198.557 34.6411C197.684 35.1144 196.674 35.3511 195.527 35.3511ZM195.527 32.8911C196.067 32.8911 196.537 32.7644 196.937 32.5111C197.337 32.2578 197.647 31.9011 197.867 31.4411C198.087 30.9744 198.197 30.4311 198.197 29.8111C198.197 29.1911 198.087 28.6544 197.867 28.2011C197.647 27.7411 197.337 27.3878 196.937 27.1411C196.537 26.8944 196.067 26.7711 195.527 26.7711C194.994 26.7711 194.524 26.8944 194.117 27.1411C193.717 27.3878 193.407 27.7411 193.187 28.2011C192.967 28.6544 192.857 29.1911 192.857 29.8111C192.857 30.4311 192.967 30.9744 193.187 31.4411C193.407 31.9011 193.717 32.2578 194.117 32.5111C194.524 32.7644 194.994 32.8911 195.527 32.8911ZM211.619 35.1211L209.399 24.5011H211.659L213.889 34.2411L213.379 34.2611L214.769 24.5011H217.969L215.849 35.1211H211.619ZM204.239 35.1211L202.119 24.5011H205.319L206.709 34.2611L206.209 34.2411L208.419 24.5011H210.679L208.479 35.1211H204.239Z" fill="#FCFCFC"/>
<defs>
<linearGradient id="paint0_linear_3553_5020" x1="0.852539" y1="0.121094" x2="57.8737" y2="158.853" gradientUnits="userSpaceOnUse">
<stop stop-color="#0038F5"/>
<stop offset="1" stop-color="#9F03FF"/>
</linearGradient>
</defs>
</svg>
