<svg width="343" height="56" viewBox="0 0 343 56" fill="none" xmlns="http://www.w3.org/2000/svg">
<path d="M116.835 30.2561C116.388 29.4782 116.388 28.522 116.835 27.7441C119.185 23.651 122.944 21 127.18 21C131.416 21 135.175 23.6509 137.525 27.744C137.971 28.5219 137.971 29.4781 137.525 30.256C135.175 34.3491 131.416 37 127.18 37C122.944 37 119.185 34.3491 116.835 30.2561Z" stroke="#14142B" stroke-width="2"/>
<circle cx="127.18" cy="29" r="3" stroke="#14142B" stroke-width="2"/>
<path d="M151.83 35H148.72V20.25H153.77C154.897 20.25 155.86 20.47 156.66 20.91C157.467 21.3433 158.08 21.9333 158.5 22.68C158.927 23.42 159.14 24.2567 159.14 25.19C159.14 26.1167 158.923 26.9667 158.49 27.74C158.063 28.5067 157.45 29.1233 156.65 29.59C155.85 30.05 154.89 30.28 153.77 30.28H151.83V35ZM151.83 29.32L150.43 27.88H153.44C153.96 27.88 154.413 27.7767 154.8 27.57C155.187 27.3567 155.487 27.05 155.7 26.65C155.913 26.2433 156.02 25.7567 156.02 25.19C156.02 24.6167 155.913 24.1433 155.7 23.77C155.493 23.39 155.197 23.11 154.81 22.93C154.43 22.7433 153.973 22.65 153.44 22.65H150.43L151.83 21.17V29.32ZM161.073 35V24.38H164.183V28.04L163.543 27.64C163.617 27.14 163.75 26.68 163.943 26.26C164.137 25.84 164.387 25.4767 164.693 25.17C165 24.8567 165.363 24.6133 165.783 24.44C166.21 24.2667 166.697 24.18 167.243 24.18C167.67 24.18 168.003 24.2133 168.243 24.28C168.49 24.34 168.643 24.3867 168.703 24.42L168.193 27.2C168.133 27.1667 168 27.1133 167.793 27.04C167.587 26.9667 167.32 26.93 166.993 26.93C166.46 26.93 166.013 27.02 165.653 27.2C165.293 27.38 165.003 27.62 164.783 27.92C164.57 28.2133 164.417 28.54 164.323 28.9C164.23 29.26 164.183 29.6233 164.183 29.99V35H161.073ZM171.267 30.62V28.57H178.307L178.007 29.09C178.007 29.0367 178.007 28.9867 178.007 28.94C178.007 28.8867 178.007 28.8367 178.007 28.79C178.007 28.41 177.917 28.0467 177.737 27.7C177.557 27.3467 177.277 27.06 176.897 26.84C176.524 26.6133 176.044 26.5 175.457 26.5C174.871 26.5 174.364 26.6267 173.937 26.88C173.517 27.1267 173.194 27.4833 172.967 27.95C172.747 28.4167 172.637 28.98 172.637 29.64C172.637 30.32 172.744 30.9033 172.957 31.39C173.177 31.87 173.501 32.24 173.927 32.5C174.361 32.76 174.897 32.89 175.537 32.89C175.951 32.89 176.307 32.8533 176.607 32.78C176.907 32.7 177.151 32.6 177.337 32.48C177.531 32.36 177.677 32.2267 177.777 32.08C177.877 31.9333 177.937 31.79 177.957 31.65H181.017C180.977 32.0967 180.824 32.5367 180.557 32.97C180.291 33.3967 179.921 33.7833 179.447 34.13C178.974 34.47 178.397 34.74 177.717 34.94C177.044 35.14 176.274 35.24 175.407 35.24C174.234 35.24 173.211 35.0067 172.337 34.54C171.464 34.0667 170.787 33.4167 170.307 32.59C169.827 31.7567 169.587 30.7967 169.587 29.71C169.587 28.61 169.831 27.6467 170.317 26.82C170.811 25.9867 171.494 25.34 172.367 24.88C173.247 24.4133 174.264 24.18 175.417 24.18C176.597 24.18 177.617 24.4167 178.477 24.89C179.337 25.3567 180.001 26.0133 180.467 26.86C180.934 27.7 181.167 28.68 181.167 29.8C181.167 29.9667 181.164 30.1267 181.157 30.28C181.151 30.4333 181.141 30.5467 181.127 30.62H171.267ZM192.523 24.38L189.303 35H185.123L181.833 24.38H185.033L187.453 34.06H186.973L189.313 24.38H192.523ZM193.883 35V24.38H196.953V35H193.883ZM195.413 22.65C194.933 22.65 194.513 22.5233 194.153 22.27C193.8 22.0167 193.623 21.66 193.623 21.2C193.623 20.7333 193.8 20.3733 194.153 20.12C194.513 19.8667 194.933 19.74 195.413 19.74C195.9 19.74 196.32 19.8667 196.673 20.12C197.033 20.3733 197.213 20.7333 197.213 21.2C197.213 21.6667 197.033 22.0267 196.673 22.28C196.32 22.5267 195.9 22.65 195.413 22.65ZM200.427 30.62V28.57H207.467L207.167 29.09C207.167 29.0367 207.167 28.9867 207.167 28.94C207.167 28.8867 207.167 28.8367 207.167 28.79C207.167 28.41 207.077 28.0467 206.897 27.7C206.717 27.3467 206.437 27.06 206.057 26.84C205.684 26.6133 205.204 26.5 204.617 26.5C204.031 26.5 203.524 26.6267 203.097 26.88C202.677 27.1267 202.354 27.4833 202.127 27.95C201.907 28.4167 201.797 28.98 201.797 29.64C201.797 30.32 201.904 30.9033 202.117 31.39C202.337 31.87 202.661 32.24 203.087 32.5C203.521 32.76 204.057 32.89 204.697 32.89C205.111 32.89 205.467 32.8533 205.767 32.78C206.067 32.7 206.311 32.6 206.497 32.48C206.691 32.36 206.837 32.2267 206.937 32.08C207.037 31.9333 207.097 31.79 207.117 31.65H210.177C210.137 32.0967 209.984 32.5367 209.717 32.97C209.451 33.3967 209.081 33.7833 208.607 34.13C208.134 34.47 207.557 34.74 206.877 34.94C206.204 35.14 205.434 35.24 204.567 35.24C203.394 35.24 202.371 35.0067 201.497 34.54C200.624 34.0667 199.947 33.4167 199.467 32.59C198.987 31.7567 198.747 30.7967 198.747 29.71C198.747 28.61 198.991 27.6467 199.477 26.82C199.971 25.9867 200.654 25.34 201.527 24.88C202.407 24.4133 203.424 24.18 204.577 24.18C205.757 24.18 206.777 24.4167 207.637 24.89C208.497 25.3567 209.161 26.0133 209.627 26.86C210.094 27.7 210.327 28.68 210.327 29.8C210.327 29.9667 210.324 30.1267 210.317 30.28C210.311 30.4333 210.301 30.5467 210.287 30.62H200.427ZM220.61 35L218.39 24.38H220.65L222.88 34.12L222.37 34.14L223.76 24.38H226.96L224.84 35H220.61ZM213.23 35L211.11 24.38H214.31L215.7 34.14L215.2 34.12L217.41 24.38H219.67L217.47 35H213.23Z" fill="#222222"/>
<rect x="0.5" y="0.5" width="342" height="55" rx="7.5" stroke="url(#paint0_linear_209_888)"/>
<defs>
<linearGradient id="paint0_linear_209_888" x1="0" y1="0" x2="57.0211" y2="158.732" gradientUnits="userSpaceOnUse">
<stop stop-color="#0038F5"/>
<stop offset="1" stop-color="#9F03FF"/>
</linearGradient>
</defs>
</svg>
