<svg width="343" height="57" viewBox="0 0 343 57" fill="none" xmlns="http://www.w3.org/2000/svg">
<path d="M118.22 35.9546V21.2046H121.33V35.0246L119.93 33.4246H126.82V35.9546H118.22ZM134.077 36.1846C132.93 36.1846 131.92 35.9479 131.047 35.4746C130.174 35.0013 129.49 34.3513 128.997 33.5246C128.51 32.6913 128.267 31.7313 128.267 30.6446C128.267 29.5646 128.51 28.6113 128.997 27.7846C129.49 26.9513 130.174 26.3046 131.047 25.8446C131.92 25.3779 132.93 25.1446 134.077 25.1446C135.224 25.1446 136.234 25.3779 137.107 25.8446C137.98 26.3046 138.66 26.9513 139.147 27.7846C139.64 28.6113 139.887 29.5646 139.887 30.6446C139.887 31.7313 139.64 32.6913 139.147 33.5246C138.66 34.3513 137.98 35.0013 137.107 35.4746C136.234 35.9479 135.224 36.1846 134.077 36.1846ZM134.077 33.7246C134.617 33.7246 135.087 33.5979 135.487 33.3446C135.887 33.0913 136.197 32.7346 136.417 32.2746C136.637 31.8079 136.747 31.2646 136.747 30.6446C136.747 30.0246 136.637 29.4879 136.417 29.0346C136.197 28.5746 135.887 28.2213 135.487 27.9746C135.087 27.7279 134.617 27.6046 134.077 27.6046C133.544 27.6046 133.074 27.7279 132.667 27.9746C132.267 28.2213 131.957 28.5746 131.737 29.0346C131.517 29.4879 131.407 30.0246 131.407 30.6446C131.407 31.2646 131.517 31.8079 131.737 32.2746C131.957 32.7346 132.267 33.0913 132.667 33.3446C133.074 33.5979 133.544 33.7246 134.077 33.7246ZM145.423 36.1746C144.65 36.1746 143.96 36.0513 143.353 35.8046C142.753 35.5579 142.283 35.2013 141.943 34.7346C141.603 34.2679 141.433 33.7013 141.433 33.0346C141.433 32.2813 141.64 31.6679 142.053 31.1946C142.467 30.7213 143.013 30.3613 143.693 30.1146C144.38 29.8613 145.123 29.6946 145.923 29.6146C147.09 29.5013 147.893 29.3979 148.333 29.3046C148.78 29.2113 149.003 29.0479 149.003 28.8146C149.003 28.8079 149.003 28.8013 149.003 28.7946C149.003 28.4013 148.813 28.0913 148.433 27.8646C148.06 27.6379 147.537 27.5246 146.863 27.5246C146.15 27.5246 145.603 27.6546 145.223 27.9146C144.85 28.1679 144.663 28.5579 144.663 29.0846H141.613C141.613 28.2313 141.843 27.5113 142.303 26.9246C142.77 26.3379 143.4 25.8946 144.193 25.5946C144.987 25.2879 145.883 25.1346 146.883 25.1346C147.817 25.1346 148.68 25.2779 149.473 25.5646C150.267 25.8446 150.903 26.2679 151.383 26.8346C151.87 27.4013 152.113 28.1213 152.113 28.9946C152.113 29.1346 152.113 29.2746 152.113 29.4146C152.113 29.5479 152.113 29.6846 152.113 29.8246V33.5846C152.113 33.8579 152.12 34.1213 152.133 34.3746C152.153 34.6213 152.193 34.8479 152.253 35.0546C152.32 35.2879 152.403 35.4813 152.503 35.6346C152.603 35.7879 152.687 35.8946 152.753 35.9546H149.703C149.657 35.9079 149.583 35.8113 149.483 35.6646C149.39 35.5179 149.31 35.3479 149.243 35.1546C149.163 34.9213 149.103 34.6879 149.063 34.4546C149.03 34.2146 149.013 33.9346 149.013 33.6146L149.653 34.0546C149.467 34.4946 149.163 34.8746 148.743 35.1946C148.33 35.5079 147.837 35.7513 147.263 35.9246C146.697 36.0913 146.083 36.1746 145.423 36.1746ZM146.253 33.8546C146.74 33.8546 147.193 33.7679 147.613 33.5946C148.04 33.4146 148.387 33.1346 148.653 32.7546C148.92 32.3746 149.053 31.8779 149.053 31.2646V30.1946L149.823 30.9446C149.383 31.1046 148.873 31.2379 148.293 31.3446C147.72 31.4446 147.147 31.5246 146.573 31.5846C145.893 31.6513 145.383 31.7679 145.043 31.9346C144.71 32.0946 144.543 32.3679 144.543 32.7546C144.543 33.1213 144.687 33.3979 144.973 33.5846C145.26 33.7646 145.687 33.8546 146.253 33.8546ZM158.822 36.1946C157.935 36.1946 157.119 35.9846 156.372 35.5646C155.625 35.1379 155.025 34.5079 154.572 33.6746C154.119 32.8413 153.892 31.8146 153.892 30.5946C153.892 29.4279 154.122 28.4379 154.582 27.6246C155.049 26.8113 155.655 26.1946 156.402 25.7746C157.155 25.3479 157.962 25.1346 158.822 25.1346C159.662 25.1346 160.429 25.3479 161.122 25.7746C161.822 26.2013 162.382 26.7846 162.802 27.5246C163.222 28.2579 163.432 29.1046 163.432 30.0646C163.432 30.0979 163.432 30.1313 163.432 30.1646C163.432 30.1913 163.432 30.2213 163.432 30.2546L162.092 30.2746C162.092 30.2546 162.092 30.2346 162.092 30.2146C162.092 30.1879 162.092 30.1646 162.092 30.1446C162.092 29.6446 161.972 29.2146 161.732 28.8546C161.492 28.4946 161.182 28.2179 160.802 28.0246C160.422 27.8246 160.025 27.7246 159.612 27.7246C158.925 27.7246 158.332 27.9546 157.832 28.4146C157.332 28.8679 157.082 29.5946 157.082 30.5946C157.082 31.5946 157.332 32.3313 157.832 32.8046C158.339 33.2713 158.932 33.5046 159.612 33.5046C160.039 33.5046 160.442 33.4046 160.822 33.2046C161.202 32.9979 161.509 32.7079 161.742 32.3346C161.975 31.9613 162.092 31.5213 162.092 31.0146L163.432 31.0846C163.432 32.0379 163.225 32.9013 162.812 33.6746C162.405 34.4413 161.852 35.0546 161.152 35.5146C160.459 35.9679 159.682 36.1946 158.822 36.1946ZM162.092 35.9546V20.3246H165.202V35.9546H162.092ZM179.195 35.9546V31.8446C179.195 31.4513 179.195 31.1113 179.195 30.8246C179.195 30.5313 179.195 30.2879 179.195 30.0946C179.195 29.8213 179.179 29.5513 179.145 29.2846C179.119 29.0179 179.052 28.7713 178.945 28.5446C178.845 28.3113 178.689 28.1279 178.475 27.9946C178.262 27.8546 177.972 27.7846 177.605 27.7846C177.265 27.7846 176.972 27.8579 176.725 28.0046C176.479 28.1446 176.275 28.3413 176.115 28.5946C175.962 28.8413 175.849 29.1279 175.775 29.4546C175.702 29.7746 175.665 30.1113 175.665 30.4646L174.815 29.7646C174.815 28.8646 174.979 28.0679 175.305 27.3746C175.632 26.6746 176.095 26.1279 176.695 25.7346C177.302 25.3346 178.019 25.1346 178.845 25.1346C179.732 25.1346 180.422 25.3246 180.915 25.7046C181.415 26.0779 181.765 26.5779 181.965 27.2046C182.172 27.8246 182.275 28.5113 182.275 29.2646C182.275 29.5513 182.275 29.9379 182.275 30.4246C182.275 30.9113 182.275 31.4946 182.275 32.1746V35.9546H179.195ZM172.565 35.9546V25.3346H175.665V35.9546H172.565ZM185.795 35.9546V31.8546C185.795 31.4479 185.795 31.0979 185.795 30.8046C185.795 30.5113 185.795 30.2679 185.795 30.0746C185.795 29.7813 185.779 29.5013 185.745 29.2346C185.712 28.9613 185.642 28.7146 185.535 28.4946C185.429 28.2746 185.269 28.1013 185.055 27.9746C184.842 27.8479 184.552 27.7846 184.185 27.7846C183.845 27.7846 183.552 27.8579 183.305 28.0046C183.065 28.1446 182.869 28.3379 182.715 28.5846C182.562 28.8313 182.449 29.1113 182.375 29.4246C182.309 29.7379 182.275 30.0646 182.275 30.4046L181.425 29.7146C181.425 28.8279 181.585 28.0413 181.905 27.3546C182.232 26.6679 182.692 26.1279 183.285 25.7346C183.885 25.3346 184.602 25.1346 185.435 25.1346C186.302 25.1346 186.985 25.3179 187.485 25.6846C187.992 26.0513 188.352 26.5413 188.565 27.1546C188.785 27.7613 188.895 28.4413 188.895 29.1946C188.895 29.4946 188.895 29.8813 188.895 30.3546C188.895 30.8279 188.895 31.4046 188.895 32.0846V35.9546H185.795ZM196.538 36.1846C195.391 36.1846 194.381 35.9479 193.508 35.4746C192.634 35.0013 191.951 34.3513 191.458 33.5246C190.971 32.6913 190.728 31.7313 190.728 30.6446C190.728 29.5646 190.971 28.6113 191.458 27.7846C191.951 26.9513 192.634 26.3046 193.508 25.8446C194.381 25.3779 195.391 25.1446 196.538 25.1446C197.684 25.1446 198.694 25.3779 199.568 25.8446C200.441 26.3046 201.121 26.9513 201.608 27.7846C202.101 28.6113 202.348 29.5646 202.348 30.6446C202.348 31.7313 202.101 32.6913 201.608 33.5246C201.121 34.3513 200.441 35.0013 199.568 35.4746C198.694 35.9479 197.684 36.1846 196.538 36.1846ZM196.538 33.7246C197.078 33.7246 197.548 33.5979 197.948 33.3446C198.348 33.0913 198.658 32.7346 198.878 32.2746C199.098 31.8079 199.208 31.2646 199.208 30.6446C199.208 30.0246 199.098 29.4879 198.878 29.0346C198.658 28.5746 198.348 28.2213 197.948 27.9746C197.548 27.7279 197.078 27.6046 196.538 27.6046C196.004 27.6046 195.534 27.7279 195.128 27.9746C194.728 28.2213 194.418 28.5746 194.198 29.0346C193.978 29.4879 193.868 30.0246 193.868 30.6446C193.868 31.2646 193.978 31.8079 194.198 32.2746C194.418 32.7346 194.728 33.0913 195.128 33.3446C195.534 33.5979 196.004 33.7246 196.538 33.7246ZM204.284 35.9546V25.3346H207.394V28.9946L206.754 28.5946C206.828 28.0946 206.961 27.6346 207.154 27.2146C207.348 26.7946 207.598 26.4313 207.904 26.1246C208.211 25.8113 208.574 25.5679 208.994 25.3946C209.421 25.2213 209.908 25.1346 210.454 25.1346C210.881 25.1346 211.214 25.1679 211.454 25.2346C211.701 25.2946 211.854 25.3413 211.914 25.3746L211.404 28.1546C211.344 28.1213 211.211 28.0679 211.004 27.9946C210.798 27.9213 210.531 27.8846 210.204 27.8846C209.671 27.8846 209.224 27.9746 208.864 28.1546C208.504 28.3346 208.214 28.5746 207.994 28.8746C207.781 29.1679 207.628 29.4946 207.534 29.8546C207.441 30.2146 207.394 30.5779 207.394 30.9446V35.9546H204.284ZM214.478 31.5746V29.5246H221.518L221.218 30.0446C221.218 29.9913 221.218 29.9413 221.218 29.8946C221.218 29.8413 221.218 29.7913 221.218 29.7446C221.218 29.3646 221.128 29.0013 220.948 28.6546C220.768 28.3013 220.488 28.0146 220.108 27.7946C219.735 27.5679 219.255 27.4546 218.668 27.4546C218.081 27.4546 217.575 27.5813 217.148 27.8346C216.728 28.0813 216.405 28.4379 216.178 28.9046C215.958 29.3713 215.848 29.9346 215.848 30.5946C215.848 31.2746 215.955 31.8579 216.168 32.3446C216.388 32.8246 216.711 33.1946 217.138 33.4546C217.571 33.7146 218.108 33.8446 218.748 33.8446C219.161 33.8446 219.518 33.8079 219.818 33.7346C220.118 33.6546 220.361 33.5546 220.548 33.4346C220.741 33.3146 220.888 33.1813 220.988 33.0346C221.088 32.8879 221.148 32.7446 221.168 32.6046H224.228C224.188 33.0513 224.035 33.4913 223.768 33.9246C223.501 34.3513 223.131 34.7379 222.658 35.0846C222.185 35.4246 221.608 35.6946 220.928 35.8946C220.255 36.0946 219.485 36.1946 218.618 36.1946C217.445 36.1946 216.421 35.9613 215.548 35.4946C214.675 35.0213 213.998 34.3713 213.518 33.5446C213.038 32.7113 212.798 31.7513 212.798 30.6646C212.798 29.5646 213.041 28.6013 213.528 27.7746C214.021 26.9413 214.705 26.2946 215.578 25.8346C216.458 25.3679 217.475 25.1346 218.628 25.1346C219.808 25.1346 220.828 25.3713 221.688 25.8446C222.548 26.3113 223.211 26.9679 223.678 27.8146C224.145 28.6546 224.378 29.6346 224.378 30.7546C224.378 30.9213 224.375 31.0813 224.368 31.2346C224.361 31.3879 224.351 31.5013 224.338 31.5746H214.478Z" fill="#222222"/>
<rect x="0.5" y="1.45459" width="342" height="55" rx="7.5" stroke="#222222"/>
</svg>
