<?xml version="1.0" encoding="iso-8859-1"?>
<!-- Uploaded to: SVG Repo, www.svgrepo.com, Generator: SVG Repo Mixer Tools -->
<!DOCTYPE svg PUBLIC "-//W3C//DTD SVG 1.1//EN" "http://www.w3.org/Graphics/SVG/1.1/DTD/svg11.dtd">
<svg fill="#000000" version="1.1" id="Capa_1" xmlns="http://www.w3.org/2000/svg" xmlns:xlink="http://www.w3.org/1999/xlink" 
	 width="800px" height="800px" viewBox="0 0 29.811 29.811"
	 xml:space="preserve">
<g>
	<g>
		<path d="M28.905,21.905h-28c-0.399,0-0.716-0.239-0.842-0.578L0.006,21.91c-0.055,0.547,0.35,0.995,0.9,0.995h28
			c0.55,0,0.955-0.448,0.9-0.995l-0.059-0.583C29.621,21.666,29.305,21.905,28.905,21.905z"/>
		<path d="M28.905,19.905h-28c-0.399,0-0.716-0.239-0.842-0.578L0.006,19.91c-0.055,0.547,0.35,0.995,0.9,0.995h28
			c0.55,0,0.955-0.448,0.9-0.995l-0.059-0.583C29.621,19.666,29.305,19.905,28.905,19.905z"/>
		<path d="M28.905,17.905h-28c-0.399,0-0.716-0.239-0.842-0.578L0.006,17.91c-0.055,0.547,0.35,0.995,0.9,0.995h28
			c0.55,0,0.955-0.448,0.9-0.995l-0.059-0.583C29.621,17.666,29.305,17.905,28.905,17.905z"/>
		<path d="M0.906,16.905h28c0.55,0,0.955-0.448,0.9-0.995L29.005,7.9c-0.055-0.547-0.55-0.995-1.1-0.995h-26
			c-0.55,0-1.045,0.448-1.1,0.995l-0.801,8.01C-0.049,16.457,0.356,16.905,0.906,16.905z M1.304,7.95
			c0.029-0.291,0.31-0.545,0.602-0.545h26c0.292,0,0.573,0.254,0.603,0.545l0.801,8.01c0.012,0.122-0.022,0.235-0.097,0.317
			c-0.075,0.082-0.184,0.128-0.307,0.128h-28c-0.123,0-0.231-0.045-0.306-0.128c-0.075-0.083-0.109-0.195-0.097-0.317L1.304,7.95z"
			/>
		<path d="M15.321,12.52v1.16c0.56-0.056,0.838-0.238,0.838-0.547C16.159,12.881,15.881,12.677,15.321,12.52z"/>
		<path d="M28.01,8c-0.003-0.035-0.069-0.095-0.104-0.095h-26c-0.035,0-0.101,0.06-0.104,0.094l-0.791,7.906h27.827L28.01,8z
			 M17.097,14.103c-0.414,0.259-1.006,0.417-1.775,0.473v0.83h-0.854v-0.808c-0.793-0.002-1.531-0.12-2.215-0.353v-1.06
			c0.227,0.12,0.564,0.231,1.014,0.333c0.449,0.102,0.85,0.161,1.201,0.176V12.3c-0.914-0.222-1.538-0.462-1.872-0.722
			c-0.334-0.259-0.501-0.575-0.501-0.947c0-0.4,0.217-0.742,0.65-1.023c0.434-0.282,1.008-0.446,1.723-0.492V8.405h0.854v0.696
			c0.824,0.026,1.439,0.112,1.847,0.26v1.034c-0.548-0.217-1.162-0.35-1.847-0.398v1.451c0.855,0.201,1.469,0.432,1.84,0.691
			c0.371,0.259,0.558,0.571,0.558,0.939C17.719,13.502,17.511,13.843,17.097,14.103z"/>
		<path d="M13.652,10.567c0,0.263,0.271,0.482,0.814,0.659v-1.213C13.924,10.076,13.652,10.261,13.652,10.567z"/>
	</g>
</g>
</svg>