<svg width="320" height="81" viewBox="0 0 320 81" fill="none" xmlns="http://www.w3.org/2000/svg">
<path d="M6.39532 50.3691V35.6191H11.1653C12.152 35.6191 13.0487 35.7991 13.8553 36.1591C14.6687 36.5125 15.3653 37.0158 15.9453 37.6691C16.532 38.3158 16.982 39.0891 17.2953 39.9891C17.6087 40.8891 17.7653 41.8825 17.7653 42.9691C17.7653 44.0558 17.6087 45.0525 17.2953 45.9591C16.982 46.8658 16.532 47.6491 15.9453 48.3091C15.3653 48.9625 14.6687 49.4691 13.8553 49.8291C13.0487 50.1891 12.152 50.3691 11.1653 50.3691H6.39532ZM9.51532 49.4491L8.11532 47.9691H10.7653C11.4853 47.9691 12.1353 47.7691 12.7153 47.3691C13.302 46.9625 13.7653 46.3858 14.1053 45.6391C14.4453 44.8858 14.6153 43.9958 14.6153 42.9691C14.6153 41.9358 14.4453 41.0525 14.1053 40.3191C13.7653 39.5791 13.302 39.0125 12.7153 38.6191C12.1353 38.2191 11.4853 38.0191 10.7653 38.0191H8.11532L9.51532 36.5391V49.4491ZM19.8033 50.3691V39.7491H22.9133V43.4091L22.2733 43.0091C22.3466 42.5091 22.48 42.0491 22.6733 41.6291C22.8666 41.2091 23.1166 40.8458 23.4233 40.5391C23.73 40.2258 24.0933 39.9825 24.5133 39.8091C24.94 39.6358 25.4266 39.5491 25.9733 39.5491C26.4 39.5491 26.7333 39.5825 26.9733 39.6491C27.22 39.7091 27.3733 39.7558 27.4333 39.7891L26.9233 42.5691C26.8633 42.5358 26.73 42.4825 26.5233 42.4091C26.3166 42.3358 26.05 42.2991 25.7233 42.2991C25.19 42.2991 24.7433 42.3891 24.3833 42.5691C24.0233 42.7491 23.7333 42.9891 23.5133 43.2891C23.3 43.5825 23.1466 43.9091 23.0533 44.2691C22.96 44.6291 22.9133 44.9925 22.9133 45.3591V50.3691H19.8033ZM32.4072 50.5891C31.6339 50.5891 30.9439 50.4658 30.3372 50.2191C29.7372 49.9725 29.2672 49.6158 28.9272 49.1491C28.5872 48.6825 28.4172 48.1158 28.4172 47.4491C28.4172 46.6958 28.6239 46.0825 29.0372 45.6091C29.4505 45.1358 29.9972 44.7758 30.6772 44.5291C31.3639 44.2758 32.1072 44.1091 32.9072 44.0291C34.0739 43.9158 34.8772 43.8125 35.3172 43.7191C35.7639 43.6258 35.9872 43.4625 35.9872 43.2291C35.9872 43.2225 35.9872 43.2158 35.9872 43.2091C35.9872 42.8158 35.7972 42.5058 35.4172 42.2791C35.0439 42.0525 34.5205 41.9391 33.8472 41.9391C33.1339 41.9391 32.5872 42.0691 32.2072 42.3291C31.8339 42.5825 31.6472 42.9725 31.6472 43.4991H28.5972C28.5972 42.6458 28.8272 41.9258 29.2872 41.3391C29.7539 40.7525 30.3839 40.3091 31.1772 40.0091C31.9705 39.7025 32.8672 39.5491 33.8672 39.5491C34.8005 39.5491 35.6639 39.6925 36.4572 39.9791C37.2505 40.2591 37.8872 40.6825 38.3672 41.2491C38.8539 41.8158 39.0972 42.5358 39.0972 43.4091C39.0972 43.5491 39.0972 43.6891 39.0972 43.8291C39.0972 43.9625 39.0972 44.0991 39.0972 44.2391V47.9991C39.0972 48.2725 39.1039 48.5358 39.1172 48.7891C39.1372 49.0358 39.1772 49.2625 39.2372 49.4691C39.3039 49.7025 39.3872 49.8958 39.4872 50.0491C39.5872 50.2025 39.6705 50.3091 39.7372 50.3691H36.6872C36.6405 50.3225 36.5672 50.2258 36.4672 50.0791C36.3739 49.9325 36.2939 49.7625 36.2272 49.5691C36.1472 49.3358 36.0872 49.1025 36.0472 48.8691C36.0139 48.6291 35.9972 48.3491 35.9972 48.0291L36.6372 48.4691C36.4505 48.9091 36.1472 49.2891 35.7272 49.6091C35.3139 49.9225 34.8205 50.1658 34.2472 50.3391C33.6805 50.5058 33.0672 50.5891 32.4072 50.5891ZM33.2372 48.2691C33.7239 48.2691 34.1772 48.1825 34.5972 48.0091C35.0239 47.8291 35.3705 47.5491 35.6372 47.1691C35.9039 46.7891 36.0372 46.2925 36.0372 45.6791V44.6091L36.8072 45.3591C36.3672 45.5191 35.8572 45.6525 35.2772 45.7591C34.7039 45.8591 34.1305 45.9391 33.5572 45.9991C32.8772 46.0658 32.3672 46.1825 32.0272 46.3491C31.6939 46.5091 31.5272 46.7825 31.5272 47.1691C31.5272 47.5358 31.6705 47.8125 31.9572 47.9991C32.2439 48.1791 32.6705 48.2691 33.2372 48.2691ZM48.6958 49.1091C49.3491 49.1758 49.9191 49.3025 50.4058 49.4891C50.8991 49.6691 51.2825 49.9391 51.5558 50.2991C51.8291 50.6525 51.9658 51.1258 51.9658 51.7191C51.9658 52.4058 51.7391 52.9891 51.2858 53.4691C50.8391 53.9558 50.1825 54.3258 49.3158 54.5791C48.4491 54.8325 47.3991 54.9591 46.1658 54.9591C44.3458 54.9591 42.9358 54.6958 41.9358 54.1691C40.9425 53.6491 40.4458 52.9525 40.4458 52.0791C40.4458 51.8325 40.4725 51.6091 40.5258 51.4091C40.5858 51.2158 40.6591 51.0491 40.7458 50.9091L43.5658 51.3191C43.5325 51.3658 43.4958 51.4358 43.4558 51.5291C43.4225 51.6291 43.4058 51.7525 43.4058 51.8991C43.4058 52.2525 43.6691 52.5158 44.1958 52.6891C44.7291 52.8625 45.4158 52.9491 46.2558 52.9491C46.8491 52.9491 47.3558 52.9058 47.7758 52.8191C48.2025 52.7391 48.5258 52.6191 48.7458 52.4591C48.9725 52.2991 49.0858 52.1158 49.0858 51.9091C49.0858 51.6091 48.9391 51.4125 48.6458 51.3191C48.3591 51.2258 48.0258 51.1591 47.6458 51.1191L43.6258 50.7091C42.8858 50.6358 42.2725 50.4225 41.7858 50.0691C41.2991 49.7158 41.0558 49.2391 41.0558 48.6391C41.0558 48.2658 41.1591 47.9258 41.3658 47.6191C41.5725 47.3058 41.8091 47.0491 42.0758 46.8491C42.3425 46.6425 42.5658 46.5125 42.7458 46.4591L44.3258 47.2591C44.1991 47.2791 44.0491 47.3591 43.8758 47.4991C43.7091 47.6391 43.6258 47.8025 43.6258 47.9891C43.6258 48.1758 43.7191 48.3358 43.9058 48.4691C44.0991 48.6025 44.4491 48.6925 44.9558 48.7391L48.6958 49.1091ZM49.7458 39.7491H52.4758L51.3658 43.8291C51.1591 44.6025 50.8525 45.2925 50.4458 45.8991C50.0391 46.4991 49.4958 46.9725 48.8158 47.3191C48.1425 47.6658 47.2925 47.8391 46.2658 47.8391C45.1858 47.8391 44.2491 47.6725 43.4558 47.3391C42.6691 47.0058 42.0625 46.5358 41.6358 45.9291C41.2091 45.3158 40.9958 44.5925 40.9958 43.7591C40.9958 42.9258 41.2125 42.1925 41.6458 41.5591C42.0858 40.9258 42.6825 40.4325 43.4358 40.0791C44.1958 39.7258 45.0558 39.5491 46.0158 39.5491C46.7425 39.5491 47.4058 39.6691 48.0058 39.9091C48.6125 40.1425 49.0991 40.4525 49.4658 40.8391C49.8391 41.2258 50.0325 41.6525 50.0458 42.1191L49.4758 42.2691L49.7458 39.7491ZM46.2458 45.5691C46.6858 45.5691 47.0725 45.4991 47.4058 45.3591C47.7391 45.2125 47.9991 45.0025 48.1858 44.7291C48.3725 44.4491 48.4658 44.1125 48.4658 43.7191C48.4658 43.3325 48.3725 43.0025 48.1858 42.7291C47.9991 42.4558 47.7391 42.2458 47.4058 42.0991C47.0725 41.9525 46.6858 41.8791 46.2458 41.8791C45.8258 41.8791 45.4458 41.9558 45.1058 42.1091C44.7725 42.2558 44.5091 42.4691 44.3158 42.7491C44.1225 43.0225 44.0258 43.3558 44.0258 43.7491C44.0258 44.1358 44.1191 44.4658 44.3058 44.7391C44.4925 45.0058 44.7525 45.2125 45.0858 45.3591C45.4191 45.4991 45.8058 45.5691 46.2458 45.5691ZM62.6416 50.5891C61.8682 50.5891 61.1782 50.4658 60.5716 50.2191C59.9716 49.9725 59.5016 49.6158 59.1616 49.1491C58.8216 48.6825 58.6516 48.1158 58.6516 47.4491C58.6516 46.6958 58.8582 46.0825 59.2716 45.6091C59.6849 45.1358 60.2316 44.7758 60.9116 44.5291C61.5982 44.2758 62.3416 44.1091 63.1416 44.0291C64.3082 43.9158 65.1116 43.8125 65.5516 43.7191C65.9982 43.6258 66.2216 43.4625 66.2216 43.2291C66.2216 43.2225 66.2216 43.2158 66.2216 43.2091C66.2216 42.8158 66.0316 42.5058 65.6516 42.2791C65.2782 42.0525 64.7549 41.9391 64.0816 41.9391C63.3682 41.9391 62.8216 42.0691 62.4416 42.3291C62.0682 42.5825 61.8816 42.9725 61.8816 43.4991H58.8316C58.8316 42.6458 59.0616 41.9258 59.5216 41.3391C59.9882 40.7525 60.6182 40.3091 61.4116 40.0091C62.2049 39.7025 63.1016 39.5491 64.1016 39.5491C65.0349 39.5491 65.8982 39.6925 66.6916 39.9791C67.4849 40.2591 68.1216 40.6825 68.6016 41.2491C69.0882 41.8158 69.3316 42.5358 69.3316 43.4091C69.3316 43.5491 69.3316 43.6891 69.3316 43.8291C69.3316 43.9625 69.3316 44.0991 69.3316 44.2391V47.9991C69.3316 48.2725 69.3382 48.5358 69.3516 48.7891C69.3716 49.0358 69.4116 49.2625 69.4716 49.4691C69.5382 49.7025 69.6216 49.8958 69.7216 50.0491C69.8216 50.2025 69.9049 50.3091 69.9716 50.3691H66.9216C66.8749 50.3225 66.8016 50.2258 66.7016 50.0791C66.6082 49.9325 66.5282 49.7625 66.4616 49.5691C66.3816 49.3358 66.3216 49.1025 66.2816 48.8691C66.2482 48.6291 66.2316 48.3491 66.2316 48.0291L66.8716 48.4691C66.6849 48.9091 66.3816 49.2891 65.9616 49.6091C65.5482 49.9225 65.0549 50.1658 64.4816 50.3391C63.9149 50.5058 63.3016 50.5891 62.6416 50.5891ZM63.4716 48.2691C63.9582 48.2691 64.4116 48.1825 64.8316 48.0091C65.2582 47.8291 65.6049 47.5491 65.8716 47.1691C66.1382 46.7891 66.2716 46.2925 66.2716 45.6791V44.6091L67.0416 45.3591C66.6016 45.5191 66.0916 45.6525 65.5116 45.7591C64.9382 45.8591 64.3649 45.9391 63.7916 45.9991C63.1116 46.0658 62.6016 46.1825 62.2616 46.3491C61.9282 46.5091 61.7616 46.7825 61.7616 47.1691C61.7616 47.5358 61.9049 47.8125 62.1916 47.9991C62.4782 48.1791 62.9049 48.2691 63.4716 48.2691ZM79.0802 50.3691V45.8591C79.0802 45.6058 79.0802 45.3758 79.0802 45.1691C79.0802 44.9625 79.0802 44.7758 79.0802 44.6091C79.0802 44.1691 79.0235 43.7691 78.9102 43.4091C78.7968 43.0425 78.5935 42.7491 78.3002 42.5291C78.0068 42.3091 77.5835 42.1991 77.0302 42.1991C76.5502 42.1991 76.1335 42.3091 75.7802 42.5291C75.4335 42.7491 75.1668 43.0558 74.9802 43.4491C74.7935 43.8425 74.7002 44.2958 74.7002 44.8091L73.8402 44.1891C73.8402 43.2691 74.0402 42.4625 74.4402 41.7691C74.8402 41.0758 75.3802 40.5325 76.0602 40.1391C76.7468 39.7458 77.5068 39.5491 78.3402 39.5491C79.2135 39.5491 79.9302 39.7258 80.4902 40.0791C81.0568 40.4258 81.4768 40.9125 81.7502 41.5391C82.0302 42.1591 82.1702 42.8858 82.1702 43.7191C82.1702 44.0591 82.1702 44.4391 82.1702 44.8591C82.1702 45.2791 82.1702 45.7091 82.1702 46.1491V50.3691H79.0802ZM71.6002 50.3691V39.7491H74.7002V50.3691H71.6002ZM88.9308 50.6091C88.0441 50.6091 87.2275 50.3991 86.4808 49.9791C85.7341 49.5525 85.1341 48.9225 84.6808 48.0891C84.2275 47.2558 84.0008 46.2291 84.0008 45.0091C84.0008 43.8425 84.2308 42.8525 84.6908 42.0391C85.1575 41.2258 85.7641 40.6091 86.5108 40.1891C87.2641 39.7625 88.0708 39.5491 88.9308 39.5491C89.7708 39.5491 90.5375 39.7625 91.2308 40.1891C91.9308 40.6158 92.4908 41.1991 92.9108 41.9391C93.3308 42.6725 93.5408 43.5191 93.5408 44.4791C93.5408 44.5125 93.5408 44.5458 93.5408 44.5791C93.5408 44.6058 93.5408 44.6358 93.5408 44.6691L92.2008 44.6891C92.2008 44.6691 92.2008 44.6491 92.2008 44.6291C92.2008 44.6025 92.2008 44.5791 92.2008 44.5591C92.2008 44.0591 92.0808 43.6291 91.8408 43.2691C91.6008 42.9091 91.2908 42.6325 90.9108 42.4391C90.5308 42.2391 90.1341 42.1391 89.7208 42.1391C89.0341 42.1391 88.4408 42.3691 87.9408 42.8291C87.4408 43.2825 87.1908 44.0091 87.1908 45.0091C87.1908 46.0091 87.4408 46.7458 87.9408 47.2191C88.4475 47.6858 89.0408 47.9191 89.7208 47.9191C90.1475 47.9191 90.5508 47.8191 90.9308 47.6191C91.3108 47.4125 91.6175 47.1225 91.8508 46.7491C92.0841 46.3758 92.2008 45.9358 92.2008 45.4291L93.5408 45.4991C93.5408 46.4525 93.3341 47.3158 92.9208 48.0891C92.5141 48.8558 91.9608 49.4691 91.2608 49.9291C90.5675 50.3825 89.7908 50.6091 88.9308 50.6091ZM92.2008 50.3691V34.7391H95.3108V50.3691H92.2008ZM107.173 50.6091C106.286 50.6091 105.47 50.3991 104.723 49.9791C103.976 49.5525 103.376 48.9225 102.923 48.0891C102.47 47.2558 102.243 46.2291 102.243 45.0091C102.243 43.8425 102.473 42.8525 102.933 42.0391C103.4 41.2258 104.006 40.6091 104.753 40.1891C105.506 39.7625 106.313 39.5491 107.173 39.5491C108.013 39.5491 108.78 39.7625 109.473 40.1891C110.173 40.6158 110.733 41.1991 111.153 41.9391C111.573 42.6725 111.783 43.5191 111.783 44.4791C111.783 44.5125 111.783 44.5458 111.783 44.5791C111.783 44.6058 111.783 44.6358 111.783 44.6691L110.443 44.6891C110.443 44.6691 110.443 44.6491 110.443 44.6291C110.443 44.6025 110.443 44.5791 110.443 44.5591C110.443 44.0591 110.323 43.6291 110.083 43.2691C109.843 42.9091 109.533 42.6325 109.153 42.4391C108.773 42.2391 108.376 42.1391 107.963 42.1391C107.276 42.1391 106.683 42.3691 106.183 42.8291C105.683 43.2825 105.433 44.0091 105.433 45.0091C105.433 46.0091 105.683 46.7458 106.183 47.2191C106.69 47.6858 107.283 47.9191 107.963 47.9191C108.39 47.9191 108.793 47.8191 109.173 47.6191C109.553 47.4125 109.86 47.1225 110.093 46.7491C110.326 46.3758 110.443 45.9358 110.443 45.4291L111.783 45.4991C111.783 46.4525 111.576 47.3158 111.163 48.0891C110.756 48.8558 110.203 49.4691 109.503 49.9291C108.81 50.3825 108.033 50.6091 107.173 50.6091ZM110.443 50.3691V34.7391H113.553V50.3691H110.443ZM115.917 50.3691V39.7491H119.027V43.4091L118.387 43.0091C118.46 42.5091 118.593 42.0491 118.787 41.6291C118.98 41.2091 119.23 40.8458 119.537 40.5391C119.843 40.2258 120.207 39.9825 120.627 39.8091C121.053 39.6358 121.54 39.5491 122.087 39.5491C122.513 39.5491 122.847 39.5825 123.087 39.6491C123.333 39.7091 123.487 39.7558 123.547 39.7891L123.037 42.5691C122.977 42.5358 122.843 42.4825 122.637 42.4091C122.43 42.3358 122.163 42.2991 121.837 42.2991C121.303 42.2991 120.857 42.3891 120.497 42.5691C120.137 42.7491 119.847 42.9891 119.627 43.2891C119.413 43.5825 119.26 43.9091 119.167 44.2691C119.073 44.6291 119.027 44.9925 119.027 45.3591V50.3691H115.917ZM130.24 50.5991C129.094 50.5991 128.084 50.3625 127.21 49.8891C126.337 49.4158 125.654 48.7658 125.16 47.9391C124.674 47.1058 124.43 46.1458 124.43 45.0591C124.43 43.9791 124.674 43.0258 125.16 42.1991C125.654 41.3658 126.337 40.7191 127.21 40.2591C128.084 39.7925 129.094 39.5591 130.24 39.5591C131.387 39.5591 132.397 39.7925 133.27 40.2591C134.144 40.7191 134.824 41.3658 135.31 42.1991C135.804 43.0258 136.05 43.9791 136.05 45.0591C136.05 46.1458 135.804 47.1058 135.31 47.9391C134.824 48.7658 134.144 49.4158 133.27 49.8891C132.397 50.3625 131.387 50.5991 130.24 50.5991ZM130.24 48.1391C130.78 48.1391 131.25 48.0125 131.65 47.7591C132.05 47.5058 132.36 47.1491 132.58 46.6891C132.8 46.2225 132.91 45.6791 132.91 45.0591C132.91 44.4391 132.8 43.9025 132.58 43.4491C132.36 42.9891 132.05 42.6358 131.65 42.3891C131.25 42.1425 130.78 42.0191 130.24 42.0191C129.707 42.0191 129.237 42.1425 128.83 42.3891C128.43 42.6358 128.12 42.9891 127.9 43.4491C127.68 43.9025 127.57 44.4391 127.57 45.0591C127.57 45.6791 127.68 46.2225 127.9 46.6891C128.12 47.1491 128.43 47.5058 128.83 47.7591C129.237 48.0125 129.707 48.1391 130.24 48.1391ZM137.987 54.7391V39.7491H141.097V54.7391H137.987ZM144.377 50.6091C143.537 50.6091 142.767 50.3858 142.067 49.9391C141.367 49.4858 140.807 48.8791 140.387 48.1191C139.967 47.3525 139.757 46.4925 139.757 45.5391C139.757 45.5125 139.757 45.4891 139.757 45.4691C139.757 45.4425 139.757 45.4125 139.757 45.3791L141.097 45.3491C141.097 45.3691 141.097 45.3891 141.097 45.4091C141.097 45.4291 141.097 45.4491 141.097 45.4691C141.097 45.9625 141.217 46.3958 141.457 46.7691C141.697 47.1358 142.007 47.4191 142.387 47.6191C142.767 47.8191 143.164 47.9191 143.577 47.9191C144.257 47.9191 144.847 47.6858 145.347 47.2191C145.854 46.7458 146.107 46.0091 146.107 45.0091C146.107 44.0091 145.857 43.2825 145.357 42.8291C144.857 42.3691 144.264 42.1391 143.577 42.1391C143.164 42.1391 142.767 42.2391 142.387 42.4391C142.007 42.6325 141.697 42.9091 141.457 43.2691C141.217 43.6291 141.097 44.0591 141.097 44.5591L139.757 44.4791C139.757 43.5191 139.967 42.6725 140.387 41.9391C140.807 41.1991 141.367 40.6158 142.067 40.1891C142.767 39.7625 143.537 39.5491 144.377 39.5491C145.237 39.5491 146.04 39.7625 146.787 40.1891C147.534 40.6091 148.137 41.2258 148.597 42.0391C149.064 42.8525 149.297 43.8425 149.297 45.0091C149.297 46.2291 149.07 47.2558 148.617 48.0891C148.164 48.9225 147.564 49.5525 146.817 49.9791C146.07 50.3991 145.257 50.6091 144.377 50.6091ZM161.608 50.5991C160.461 50.5991 159.451 50.3625 158.578 49.8891C157.704 49.4158 157.021 48.7658 156.528 47.9391C156.041 47.1058 155.798 46.1458 155.798 45.0591C155.798 43.9791 156.041 43.0258 156.528 42.1991C157.021 41.3658 157.704 40.7191 158.578 40.2591C159.451 39.7925 160.461 39.5591 161.608 39.5591C162.754 39.5591 163.764 39.7925 164.638 40.2591C165.511 40.7191 166.191 41.3658 166.678 42.1991C167.171 43.0258 167.418 43.9791 167.418 45.0591C167.418 46.1458 167.171 47.1058 166.678 47.9391C166.191 48.7658 165.511 49.4158 164.638 49.8891C163.764 50.3625 162.754 50.5991 161.608 50.5991ZM161.608 48.1391C162.148 48.1391 162.618 48.0125 163.018 47.7591C163.418 47.5058 163.728 47.1491 163.948 46.6891C164.168 46.2225 164.278 45.6791 164.278 45.0591C164.278 44.4391 164.168 43.9025 163.948 43.4491C163.728 42.9891 163.418 42.6358 163.018 42.3891C162.618 42.1425 162.148 42.0191 161.608 42.0191C161.074 42.0191 160.604 42.1425 160.198 42.3891C159.798 42.6358 159.488 42.9891 159.268 43.4491C159.048 43.9025 158.938 44.4391 158.938 45.0591C158.938 45.6791 159.048 46.2225 159.268 46.6891C159.488 47.1491 159.798 47.5058 160.198 47.7591C160.604 48.0125 161.074 48.1391 161.608 48.1391ZM169.354 50.3691V39.7491H172.464V43.4091L171.824 43.0091C171.897 42.5091 172.031 42.0491 172.224 41.6291C172.417 41.2091 172.667 40.8458 172.974 40.5391C173.281 40.2258 173.644 39.9825 174.064 39.8091C174.491 39.6358 174.977 39.5491 175.524 39.5491C175.951 39.5491 176.284 39.5825 176.524 39.6491C176.771 39.7091 176.924 39.7558 176.984 39.7891L176.474 42.5691C176.414 42.5358 176.281 42.4825 176.074 42.4091C175.867 42.3358 175.601 42.2991 175.274 42.2991C174.741 42.2991 174.294 42.3891 173.934 42.5691C173.574 42.7491 173.284 42.9891 173.064 43.2891C172.851 43.5825 172.697 43.9091 172.604 44.2691C172.511 44.6291 172.464 44.9925 172.464 45.3591V50.3691H169.354ZM189.943 50.5991C189.103 50.5991 188.333 50.3758 187.633 49.9291C186.933 49.4825 186.373 48.8791 185.953 48.1191C185.533 47.3525 185.323 46.4925 185.323 45.5391C185.323 45.5125 185.323 45.4891 185.323 45.4691C185.323 45.4425 185.323 45.4125 185.323 45.3791L186.663 45.3491C186.663 45.3691 186.663 45.3891 186.663 45.4091C186.663 45.4291 186.663 45.4491 186.663 45.4691C186.663 45.9625 186.783 46.3958 187.023 46.7691C187.263 47.1358 187.573 47.4191 187.953 47.6191C188.333 47.8191 188.73 47.9191 189.143 47.9191C189.823 47.9191 190.413 47.6858 190.913 47.2191C191.42 46.7458 191.673 46.0091 191.673 45.0091C191.673 44.0091 191.423 43.2825 190.923 42.8291C190.423 42.3691 189.83 42.1391 189.143 42.1391C188.73 42.1391 188.333 42.2391 187.953 42.4391C187.573 42.6325 187.263 42.9091 187.023 43.2691C186.783 43.6291 186.663 44.0591 186.663 44.5591L185.323 44.4791C185.323 43.5191 185.533 42.6725 185.953 41.9391C186.373 41.1991 186.933 40.6191 187.633 40.1991C188.333 39.7725 189.103 39.5591 189.943 39.5591C190.803 39.5591 191.607 39.7691 192.353 40.1891C193.1 40.6091 193.703 41.2258 194.163 42.0391C194.63 42.8525 194.863 43.8425 194.863 45.0091C194.863 46.2291 194.637 47.2558 194.183 48.0891C193.73 48.9158 193.13 49.5425 192.383 49.9691C191.637 50.3891 190.823 50.5991 189.943 50.5991ZM183.553 50.3691V34.7391H186.663V50.3691H183.553ZM196.795 50.3691V39.7491H199.905V43.4091L199.265 43.0091C199.339 42.5091 199.472 42.0491 199.665 41.6291C199.859 41.2091 200.109 40.8458 200.415 40.5391C200.722 40.2258 201.085 39.9825 201.505 39.8091C201.932 39.6358 202.419 39.5491 202.965 39.5491C203.392 39.5491 203.725 39.5825 203.965 39.6491C204.212 39.7091 204.365 39.7558 204.425 39.7891L203.915 42.5691C203.855 42.5358 203.722 42.4825 203.515 42.4091C203.309 42.3358 203.042 42.2991 202.715 42.2991C202.182 42.2991 201.735 42.3891 201.375 42.5691C201.015 42.7491 200.725 42.9891 200.505 43.2891C200.292 43.5825 200.139 43.9091 200.045 44.2691C199.952 44.6291 199.905 44.9925 199.905 45.3591V50.3691H196.795ZM211.119 50.5991C209.973 50.5991 208.963 50.3625 208.089 49.8891C207.216 49.4158 206.533 48.7658 206.039 47.9391C205.553 47.1058 205.309 46.1458 205.309 45.0591C205.309 43.9791 205.553 43.0258 206.039 42.1991C206.533 41.3658 207.216 40.7191 208.089 40.2591C208.963 39.7925 209.973 39.5591 211.119 39.5591C212.266 39.5591 213.276 39.7925 214.149 40.2591C215.023 40.7191 215.703 41.3658 216.189 42.1991C216.683 43.0258 216.929 43.9791 216.929 45.0591C216.929 46.1458 216.683 47.1058 216.189 47.9391C215.703 48.7658 215.023 49.4158 214.149 49.8891C213.276 50.3625 212.266 50.5991 211.119 50.5991ZM211.119 48.1391C211.659 48.1391 212.129 48.0125 212.529 47.7591C212.929 47.5058 213.239 47.1491 213.459 46.6891C213.679 46.2225 213.789 45.6791 213.789 45.0591C213.789 44.4391 213.679 43.9025 213.459 43.4491C213.239 42.9891 212.929 42.6358 212.529 42.3891C212.129 42.1425 211.659 42.0191 211.119 42.0191C210.586 42.0191 210.116 42.1425 209.709 42.3891C209.309 42.6358 208.999 42.9891 208.779 43.4491C208.559 43.9025 208.449 44.4391 208.449 45.0591C208.449 45.6791 208.559 46.2225 208.779 46.6891C208.999 47.1491 209.309 47.5058 209.709 47.7591C210.116 48.0125 210.586 48.1391 211.119 48.1391ZM227.211 50.3691L224.991 39.7491H227.251L229.481 49.4891L228.971 49.5091L230.361 39.7491H233.561L231.441 50.3691H227.211ZM219.831 50.3691L217.711 39.7491H220.911L222.301 49.5091L221.801 49.4891L224.011 39.7491H226.271L224.071 50.3691H219.831ZM240.31 50.6091C239.143 50.6091 238.12 50.3758 237.24 49.9091C236.36 49.4358 235.676 48.7791 235.19 47.9391C234.71 47.0991 234.47 46.1291 234.47 45.0291C234.47 43.9158 234.71 42.9525 235.19 42.1391C235.676 41.3191 236.36 40.6825 237.24 40.2291C238.12 39.7758 239.143 39.5491 240.31 39.5491C241.183 39.5491 241.956 39.6791 242.63 39.9391C243.303 40.1925 243.866 40.5291 244.32 40.9491C244.773 41.3691 245.116 41.8291 245.35 42.3291C245.583 42.8291 245.7 43.3258 245.7 43.8191C245.7 43.8258 245.7 43.8391 245.7 43.8591C245.7 43.8725 245.7 43.8858 245.7 43.8991H242.63C242.63 43.8591 242.626 43.8225 242.62 43.7891C242.62 43.7491 242.613 43.7091 242.6 43.6691C242.546 43.3891 242.43 43.1258 242.25 42.8791C242.07 42.6325 241.816 42.4325 241.49 42.2791C241.17 42.1191 240.77 42.0391 240.29 42.0391C239.776 42.0391 239.316 42.1525 238.91 42.3791C238.51 42.6058 238.193 42.9425 237.96 43.3891C237.726 43.8291 237.61 44.3758 237.61 45.0291C237.61 45.6691 237.726 46.2225 237.96 46.6891C238.193 47.1491 238.51 47.5025 238.91 47.7491C239.316 47.9958 239.776 48.1191 240.29 48.1191C240.816 48.1191 241.246 48.0391 241.58 47.8791C241.913 47.7125 242.163 47.4925 242.33 47.2191C242.496 46.9391 242.596 46.6325 242.63 46.2991H245.7C245.7 46.7925 245.583 47.2958 245.35 47.8091C245.123 48.3158 244.783 48.7791 244.33 49.1991C243.883 49.6191 243.323 49.9591 242.65 50.2191C241.976 50.4791 241.196 50.6091 240.31 50.6091ZM248.825 45.9891V43.9391H255.865L255.565 44.4591C255.565 44.4058 255.565 44.3558 255.565 44.3091C255.565 44.2558 255.565 44.2058 255.565 44.1591C255.565 43.7791 255.475 43.4158 255.295 43.0691C255.115 42.7158 254.835 42.4291 254.455 42.2091C254.082 41.9825 253.602 41.8691 253.015 41.8691C252.429 41.8691 251.922 41.9958 251.495 42.2491C251.075 42.4958 250.752 42.8525 250.525 43.3191C250.305 43.7858 250.195 44.3491 250.195 45.0091C250.195 45.6891 250.302 46.2725 250.515 46.7591C250.735 47.2391 251.059 47.6091 251.485 47.8691C251.919 48.1291 252.455 48.2591 253.095 48.2591C253.509 48.2591 253.865 48.2225 254.165 48.1491C254.465 48.0691 254.709 47.9691 254.895 47.8491C255.089 47.7291 255.235 47.5958 255.335 47.4491C255.435 47.3025 255.495 47.1591 255.515 47.0191H258.575C258.535 47.4658 258.382 47.9058 258.115 48.3391C257.849 48.7658 257.479 49.1525 257.005 49.4991C256.532 49.8391 255.955 50.1091 255.275 50.3091C254.602 50.5091 253.832 50.6091 252.965 50.6091C251.792 50.6091 250.769 50.3758 249.895 49.9091C249.022 49.4358 248.345 48.7858 247.865 47.9591C247.385 47.1258 247.145 46.1658 247.145 45.0791C247.145 43.9791 247.389 43.0158 247.875 42.1891C248.369 41.3558 249.052 40.7091 249.925 40.2491C250.805 39.7825 251.822 39.5491 252.975 39.5491C254.155 39.5491 255.175 39.7858 256.035 40.2591C256.895 40.7258 257.559 41.3825 258.025 42.2291C258.492 43.0691 258.725 44.0491 258.725 45.1691C258.725 45.3358 258.722 45.4958 258.715 45.6491C258.709 45.8025 258.699 45.9158 258.685 45.9891H248.825ZM269.321 50.5891C268.548 50.5891 267.858 50.4658 267.251 50.2191C266.651 49.9725 266.181 49.6158 265.841 49.1491C265.501 48.6825 265.331 48.1158 265.331 47.4491C265.331 46.6958 265.538 46.0825 265.951 45.6091C266.365 45.1358 266.911 44.7758 267.591 44.5291C268.278 44.2758 269.021 44.1091 269.821 44.0291C270.988 43.9158 271.791 43.8125 272.231 43.7191C272.678 43.6258 272.901 43.4625 272.901 43.2291C272.901 43.2225 272.901 43.2158 272.901 43.2091C272.901 42.8158 272.711 42.5058 272.331 42.2791C271.958 42.0525 271.435 41.9391 270.761 41.9391C270.048 41.9391 269.501 42.0691 269.121 42.3291C268.748 42.5825 268.561 42.9725 268.561 43.4991H265.511C265.511 42.6458 265.741 41.9258 266.201 41.3391C266.668 40.7525 267.298 40.3091 268.091 40.0091C268.885 39.7025 269.781 39.5491 270.781 39.5491C271.715 39.5491 272.578 39.6925 273.371 39.9791C274.165 40.2591 274.801 40.6825 275.281 41.2491C275.768 41.8158 276.011 42.5358 276.011 43.4091C276.011 43.5491 276.011 43.6891 276.011 43.8291C276.011 43.9625 276.011 44.0991 276.011 44.2391V47.9991C276.011 48.2725 276.018 48.5358 276.031 48.7891C276.051 49.0358 276.091 49.2625 276.151 49.4691C276.218 49.7025 276.301 49.8958 276.401 50.0491C276.501 50.2025 276.585 50.3091 276.651 50.3691H273.601C273.555 50.3225 273.481 50.2258 273.381 50.0791C273.288 49.9325 273.208 49.7625 273.141 49.5691C273.061 49.3358 273.001 49.1025 272.961 48.8691C272.928 48.6291 272.911 48.3491 272.911 48.0291L273.551 48.4691C273.365 48.9091 273.061 49.2891 272.641 49.6091C272.228 49.9225 271.735 50.1658 271.161 50.3391C270.595 50.5058 269.981 50.5891 269.321 50.5891ZM270.151 48.2691C270.638 48.2691 271.091 48.1825 271.511 48.0091C271.938 47.8291 272.285 47.5491 272.551 47.1691C272.818 46.7891 272.951 46.2925 272.951 45.6791V44.6091L273.721 45.3591C273.281 45.5191 272.771 45.6525 272.191 45.7591C271.618 45.8591 271.045 45.9391 270.471 45.9991C269.791 46.0658 269.281 46.1825 268.941 46.3491C268.608 46.5091 268.441 46.7825 268.441 47.1691C268.441 47.5358 268.585 47.8125 268.871 47.9991C269.158 48.1791 269.585 48.2691 270.151 48.2691ZM284.57 50.3691V42.1491H282.36V39.7491H284.57V39.0191C284.57 38.3125 284.663 37.7091 284.85 37.2091C285.043 36.7025 285.303 36.2825 285.63 35.9491C285.957 35.6091 286.323 35.3425 286.73 35.1491C287.143 34.9491 287.567 34.8091 288 34.7291C288.44 34.6425 288.867 34.5991 289.28 34.5991C289.72 34.5991 290.047 34.6258 290.26 34.6791C290.48 34.7258 290.627 34.7658 290.7 34.7991V37.2091C290.62 37.1825 290.477 37.1525 290.27 37.1191C290.07 37.0858 289.853 37.0691 289.62 37.0691C289.233 37.0691 288.913 37.1191 288.66 37.2191C288.407 37.3191 288.207 37.4658 288.06 37.6591C287.913 37.8458 287.81 38.0691 287.75 38.3291C287.69 38.5825 287.66 38.8591 287.66 39.1591V39.7491H290.51V42.1491H287.66V50.3691H284.57ZM291.968 50.3691V39.7491H295.038V50.3691H291.968ZM293.498 38.0191C293.018 38.0191 292.598 37.8925 292.238 37.6391C291.885 37.3858 291.708 37.0291 291.708 36.5691C291.708 36.1025 291.885 35.7425 292.238 35.4891C292.598 35.2358 293.018 35.1091 293.498 35.1091C293.985 35.1091 294.405 35.2358 294.758 35.4891C295.118 35.7425 295.298 36.1025 295.298 36.5691C295.298 37.0358 295.118 37.3958 294.758 37.6491C294.405 37.8958 293.985 38.0191 293.498 38.0191ZM300.533 34.7391V50.3691H297.473V34.7391H300.533ZM304.196 45.9891V43.9391H311.236L310.936 44.4591C310.936 44.4058 310.936 44.3558 310.936 44.3091C310.936 44.2558 310.936 44.2058 310.936 44.1591C310.936 43.7791 310.846 43.4158 310.666 43.0691C310.486 42.7158 310.206 42.4291 309.826 42.2091C309.453 41.9825 308.973 41.8691 308.386 41.8691C307.8 41.8691 307.293 41.9958 306.866 42.2491C306.446 42.4958 306.123 42.8525 305.896 43.3191C305.676 43.7858 305.566 44.3491 305.566 45.0091C305.566 45.6891 305.673 46.2725 305.886 46.7591C306.106 47.2391 306.43 47.6091 306.856 47.8691C307.29 48.1291 307.826 48.2591 308.466 48.2591C308.88 48.2591 309.236 48.2225 309.536 48.1491C309.836 48.0691 310.08 47.9691 310.266 47.8491C310.46 47.7291 310.606 47.5958 310.706 47.4491C310.806 47.3025 310.866 47.1591 310.886 47.0191H313.946C313.906 47.4658 313.753 47.9058 313.486 48.3391C313.22 48.7658 312.85 49.1525 312.376 49.4991C311.903 49.8391 311.326 50.1091 310.646 50.3091C309.973 50.5091 309.203 50.6091 308.336 50.6091C307.163 50.6091 306.14 50.3758 305.266 49.9091C304.393 49.4358 303.716 48.7858 303.236 47.9591C302.756 47.1258 302.516 46.1658 302.516 45.0791C302.516 43.9791 302.76 43.0158 303.246 42.1891C303.74 41.3558 304.423 40.7091 305.296 40.2491C306.176 39.7825 307.193 39.5491 308.346 39.5491C309.526 39.5491 310.546 39.7858 311.406 40.2591C312.266 40.7258 312.93 41.3825 313.396 42.2291C313.863 43.0691 314.096 44.0491 314.096 45.1691C314.096 45.3358 314.093 45.4958 314.086 45.6491C314.08 45.8025 314.07 45.9158 314.056 45.9891H304.196Z" fill="#222222"/>
<path d="M182.343 51.6191H259.445V52.1191H182.343V51.6191Z" fill="#222222"/>
<path d="M43.3061 74.251H41.8956V64.6635H44.7816C45.5182 64.6635 46.1357 64.8021 46.6341 65.0795C47.1367 65.3568 47.5137 65.7316 47.7651 66.204C48.0207 66.672 48.1486 67.1963 48.1486 67.777C48.1486 68.3576 48.0186 68.8928 47.7586 69.3825C47.5029 69.8678 47.1237 70.2578 46.6211 70.5525C46.1184 70.8471 45.5052 70.9945 44.7816 70.9945H43.3061V74.251ZM43.3061 70.5135L42.6691 69.8245H44.6191C45.0784 69.8245 45.4641 69.7421 45.7761 69.5775C46.0924 69.4085 46.3307 69.1701 46.4911 68.8625C46.6514 68.5548 46.7316 68.193 46.7316 67.777C46.7316 67.361 46.6536 67.0078 46.4976 66.7175C46.3416 66.4271 46.1076 66.2083 45.7956 66.061C45.4836 65.9093 45.0914 65.8335 44.6191 65.8335H42.6691L43.3061 65.0925V70.5135ZM50.935 74.251H49.5635V64.6635H51.8125L55.5955 73.5815L55.4265 73.6465V64.6635H56.8045V74.251H54.523L50.753 65.346L50.935 65.2875V74.251ZM62.25 74.3875C61.5177 74.3875 60.8525 74.1946 60.2545 73.809C59.6608 73.4233 59.1863 72.8643 58.831 72.132C58.48 71.3996 58.3045 70.5135 58.3045 69.4735C58.3045 68.4291 58.4843 67.5408 58.844 66.8085C59.208 66.0761 59.6977 65.515 60.313 65.125C60.9327 64.735 61.626 64.54 62.393 64.54C63.0213 64.54 63.5522 64.6461 63.9855 64.8585C64.4232 65.0708 64.7785 65.3438 65.0515 65.6775C65.3288 66.0111 65.5303 66.3643 65.656 66.737C65.7817 67.1053 65.8445 67.452 65.8445 67.777C65.8445 67.79 65.8445 67.803 65.8445 67.816C65.8445 67.829 65.8445 67.842 65.8445 67.855H64.473C64.473 67.842 64.473 67.829 64.473 67.816C64.473 67.803 64.473 67.79 64.473 67.777C64.473 67.5343 64.4297 67.2938 64.343 67.0555C64.2607 66.8128 64.1328 66.594 63.9595 66.399C63.7905 66.204 63.5738 66.048 63.3095 65.931C63.0495 65.814 62.744 65.7555 62.393 65.7555C61.9163 65.7555 61.4765 65.8876 61.0735 66.152C60.6705 66.412 60.3455 66.8171 60.0985 67.3675C59.8515 67.9135 59.728 68.6155 59.728 69.4735C59.728 70.1278 59.7952 70.6911 59.9295 71.1635C60.0682 71.6315 60.2567 72.015 60.495 72.314C60.7333 72.6086 61.0085 72.8275 61.3205 72.9705C61.6325 73.1135 61.9662 73.185 62.3215 73.185C62.7982 73.185 63.1903 73.1048 63.498 72.9445C63.81 72.7798 64.0505 72.5761 64.2195 72.3335C64.3928 72.0908 64.5033 71.8503 64.551 71.612V70.7345H62.354V69.6295H65.8185V74.251H64.915L64.811 73.185C64.7763 73.2586 64.7048 73.3605 64.5965 73.4905C64.4882 73.6205 64.3322 73.7548 64.1285 73.8935C63.9292 74.0321 63.6735 74.1491 63.3615 74.2445C63.0538 74.3398 62.6833 74.3875 62.25 74.3875ZM67.2226 76.123L67.0146 75.7525C67.1879 75.6745 67.3634 75.551 67.5411 75.382C67.7188 75.213 67.8683 75.0288 67.9896 74.8295C68.1153 74.6345 68.1781 74.4525 68.1781 74.2835C68.1781 74.2315 68.1716 74.1816 68.1586 74.134C68.1456 74.082 68.1261 74.0365 68.1001 73.9975H68.4576C68.4013 74.1361 68.3038 74.2423 68.1651 74.316C68.0308 74.3896 67.8834 74.4265 67.7231 74.4265C67.4934 74.4265 67.2919 74.355 67.1186 74.212C66.9496 74.069 66.8651 73.8631 66.8651 73.5945C66.8651 73.3345 66.9561 73.1243 67.1381 72.964C67.3201 72.8036 67.5563 72.7235 67.8466 72.7235C68.1586 72.7235 68.4056 72.8231 68.5876 73.0225C68.7696 73.2175 68.8606 73.484 68.8606 73.822C68.8606 74.1556 68.7761 74.4785 68.6071 74.7905C68.4424 75.1025 68.2344 75.3733 67.9831 75.603C67.7318 75.837 67.4783 76.0103 67.2226 76.123ZM77.5606 74.3875C76.8282 74.3875 76.1631 74.1946 75.5651 73.809C74.9714 73.4233 74.4969 72.8643 74.1416 72.132C73.7906 71.3996 73.6151 70.5135 73.6151 69.4735C73.6151 68.4291 73.7949 67.5408 74.1546 66.8085C74.5186 66.0761 75.0082 65.515 75.6236 65.125C76.2432 64.735 76.9366 64.54 77.7036 64.54C78.3319 64.54 78.8627 64.6461 79.2961 64.8585C79.7337 65.0708 80.0891 65.3438 80.3621 65.6775C80.6394 66.0111 80.8409 66.3643 80.9666 66.737C81.0922 67.1053 81.1551 67.452 81.1551 67.777C81.1551 67.79 81.1551 67.803 81.1551 67.816C81.1551 67.829 81.1551 67.842 81.1551 67.855H79.7836C79.7836 67.842 79.7836 67.829 79.7836 67.816C79.7836 67.803 79.7836 67.79 79.7836 67.777C79.7836 67.5343 79.7402 67.2938 79.6536 67.0555C79.5712 66.8128 79.4434 66.594 79.2701 66.399C79.1011 66.204 78.8844 66.048 78.6201 65.931C78.3601 65.814 78.0546 65.7555 77.7036 65.7555C77.2269 65.7555 76.7871 65.8876 76.3841 66.152C75.9811 66.412 75.6561 66.8171 75.4091 67.3675C75.1621 67.9135 75.0386 68.6155 75.0386 69.4735C75.0386 70.1278 75.1057 70.6911 75.2401 71.1635C75.3787 71.6315 75.5672 72.015 75.8056 72.314C76.0439 72.6086 76.3191 72.8275 76.6311 72.9705C76.9431 73.1135 77.2767 73.185 77.6321 73.185C78.1087 73.185 78.5009 73.1048 78.8086 72.9445C79.1206 72.7798 79.3611 72.5761 79.5301 72.3335C79.7034 72.0908 79.8139 71.8503 79.8616 71.612V70.7345H77.6646V69.6295H81.1291V74.251H80.2256L80.1216 73.185C80.0869 73.2586 80.0154 73.3605 79.9071 73.4905C79.7987 73.6205 79.6427 73.7548 79.4391 73.8935C79.2397 74.0321 78.9841 74.1491 78.6721 74.2445C78.3644 74.3398 77.9939 74.3875 77.5606 74.3875ZM82.9401 74.251V64.6635H84.3311V74.251H82.9401ZM86.8803 65.8335L87.5173 65.0925V69.3565L87.0753 68.9535H90.9688V70.1235H87.0753L87.5173 69.6945V74.251H86.1133V64.6635H91.5473V65.8335H86.8803ZM91.6865 76.123L91.4785 75.7525C91.6518 75.6745 91.8273 75.551 92.005 75.382C92.1826 75.213 92.3321 75.0288 92.4535 74.8295C92.5791 74.6345 92.642 74.4525 92.642 74.2835C92.642 74.2315 92.6355 74.1816 92.6225 74.134C92.6095 74.082 92.59 74.0365 92.564 73.9975H92.9215C92.8651 74.1361 92.7676 74.2423 92.629 74.316C92.4946 74.3896 92.3473 74.4265 92.187 74.4265C91.9573 74.4265 91.7558 74.355 91.5825 74.212C91.4135 74.069 91.329 73.8631 91.329 73.5945C91.329 73.3345 91.42 73.1243 91.602 72.964C91.784 72.8036 92.0201 72.7235 92.3105 72.7235C92.6225 72.7235 92.8695 72.8231 93.0515 73.0225C93.2335 73.2175 93.3245 73.484 93.3245 73.822C93.3245 74.1556 93.24 74.4785 93.071 74.7905C92.9063 75.1025 92.6983 75.3733 92.447 75.603C92.1956 75.837 91.9421 76.0103 91.6865 76.123ZM99.4634 74.251L97.9814 64.6635H99.4374L100.64 73.7895L100.425 73.783L102.336 64.6635H104.15L106.054 73.783L105.84 73.7895L107.042 64.6635H108.505L107.01 74.251H104.839L103.168 65.7555H103.324L101.641 74.251H99.4634ZM110.583 65.8335L111.22 65.0925V69.3045L110.882 68.856H114.515V70.026H110.882L111.22 69.5775V73.822L110.583 73.081H115.237V74.251H109.803V64.6635H115.237V65.8335H110.583ZM120.375 64.6635C120.995 64.6635 121.512 64.7501 121.928 64.9235C122.349 65.0925 122.667 65.3481 122.884 65.6905C123.101 66.0285 123.209 66.451 123.209 66.958C123.209 67.4433 123.109 67.8528 122.91 68.1865C122.715 68.5158 122.464 68.7671 122.156 68.9405C121.853 69.1138 121.541 69.2113 121.22 69.233C121.567 69.2416 121.909 69.324 122.247 69.48C122.589 69.6316 122.871 69.8786 123.092 70.221C123.313 70.559 123.423 71.0118 123.423 71.5795C123.423 72.1255 123.313 72.6 123.092 73.003C122.875 73.4016 122.539 73.7093 122.084 73.926C121.629 74.1426 121.044 74.251 120.329 74.251H116.988V64.6635H120.375ZM118.347 69.1355L117.872 68.6935H119.822C120.455 68.6935 120.943 68.5635 121.285 68.3035C121.627 68.0435 121.798 67.6708 121.798 67.1855C121.798 66.8561 121.727 66.594 121.584 66.399C121.441 66.1996 121.235 66.0566 120.966 65.97C120.702 65.879 120.388 65.8335 120.024 65.8335H117.71L118.347 65.0925V69.1355ZM120.056 73.081C120.663 73.081 121.135 72.9466 121.473 72.678C121.816 72.405 121.987 72.0128 121.987 71.5015C121.987 71.1938 121.931 70.936 121.818 70.728C121.71 70.5156 121.56 70.3466 121.369 70.221C121.179 70.0953 120.958 70.0043 120.706 69.948C120.455 69.8873 120.186 69.857 119.9 69.857H117.872L118.347 69.415V73.822L117.71 73.081H120.056ZM126.435 74.251H125.024V64.6635H127.91C128.647 64.6635 129.265 64.8021 129.763 65.0795C130.266 65.3568 130.643 65.7316 130.894 66.204C131.15 66.672 131.277 67.1963 131.277 67.777C131.277 68.3576 131.147 68.8928 130.887 69.3825C130.632 69.8678 130.253 70.2578 129.75 70.5525C129.247 70.8471 128.634 70.9945 127.91 70.9945H126.435V74.251ZM126.435 70.5135L125.798 69.8245H127.748C128.207 69.8245 128.593 69.7421 128.905 69.5775C129.221 69.4085 129.46 69.1701 129.62 68.8625C129.78 68.5548 129.86 68.193 129.86 67.777C129.86 67.361 129.782 67.0078 129.626 66.7175C129.47 66.4271 129.236 66.2083 128.924 66.061C128.612 65.9093 128.22 65.8335 127.748 65.8335H125.798L126.435 65.0925V70.5135ZM131.499 76.123L131.291 75.7525C131.464 75.6745 131.64 75.551 131.817 75.382C131.995 75.213 132.145 75.0288 132.266 74.8295C132.392 74.6345 132.454 74.4525 132.454 74.2835C132.454 74.2315 132.448 74.1816 132.435 74.134C132.422 74.082 132.402 74.0365 132.376 73.9975H132.734C132.678 74.1361 132.58 74.2423 132.441 74.316C132.307 74.3896 132.16 74.4265 131.999 74.4265C131.77 74.4265 131.568 74.355 131.395 74.212C131.226 74.069 131.141 73.8631 131.141 73.5945C131.141 73.3345 131.232 73.1243 131.414 72.964C131.596 72.8036 131.833 72.7235 132.123 72.7235C132.435 72.7235 132.682 72.8231 132.864 73.0225C133.046 73.2175 133.137 73.484 133.137 73.822C133.137 74.1556 133.052 74.4785 132.883 74.7905C132.719 75.1025 132.511 75.3733 132.259 75.603C132.008 75.837 131.755 76.0103 131.499 76.123ZM144.911 64.6635H147.323V74.251H145.984V65.6515L146.023 65.6645L143.767 74.251H141.83L139.555 65.658L139.594 65.6385V74.251H138.249V64.6635H140.66L142.812 73.341H142.747L144.911 64.6635ZM150.594 74.251H149.184V64.6635H152.07C152.806 64.6635 153.424 64.8021 153.922 65.0795C154.425 65.3568 154.802 65.7316 155.053 66.204C155.309 66.672 155.437 67.1963 155.437 67.777C155.437 68.3576 155.307 68.8928 155.047 69.3825C154.791 69.8678 154.412 70.2578 153.909 70.5525C153.406 70.8471 152.793 70.9945 152.07 70.9945H150.594V74.251ZM150.594 70.5135L149.957 69.8245H151.907C152.366 69.8245 152.752 69.7421 153.064 69.5775C153.38 69.4085 153.619 69.1701 153.779 68.8625C153.939 68.5548 154.02 68.193 154.02 67.777C154.02 67.361 153.942 67.0078 153.786 66.7175C153.63 66.4271 153.396 66.2083 153.084 66.061C152.772 65.9093 152.379 65.8335 151.907 65.8335H149.957L150.594 65.0925V70.5135ZM160.245 74.251V72.197H156.325V71.1375L159.744 64.6375H161.623V71.04H162.871V72.197H161.623V74.251H160.245ZM157.476 71.729L157.053 71.04H160.245V65.58L160.57 65.658L157.476 71.729ZM170.934 74.381C170.223 74.381 169.595 74.2271 169.049 73.9195C168.507 73.6118 168.082 73.1893 167.775 72.652C167.471 72.1103 167.32 71.4906 167.32 70.793C167.32 70.0996 167.471 69.4865 167.775 68.9535C168.082 68.4161 168.507 67.998 169.049 67.699C169.595 67.3956 170.223 67.244 170.934 67.244C171.644 67.244 172.271 67.3956 172.812 67.699C173.358 67.998 173.783 68.4161 174.086 68.9535C174.394 69.4865 174.548 70.0996 174.548 70.793C174.548 71.4906 174.394 72.1103 174.086 72.652C173.783 73.1893 173.358 73.6118 172.812 73.9195C172.271 74.2271 171.644 74.381 170.934 74.381ZM170.934 73.172C171.367 73.172 171.748 73.0745 172.078 72.8795C172.407 72.6845 172.665 72.4093 172.851 72.054C173.038 71.6943 173.131 71.274 173.131 70.793C173.131 70.3163 173.038 69.9025 172.851 69.5515C172.665 69.2005 172.407 68.9296 172.078 68.739C171.748 68.5483 171.367 68.453 170.934 68.453C170.505 68.453 170.123 68.5483 169.79 68.739C169.46 68.9296 169.203 69.2005 169.016 69.5515C168.83 69.9025 168.737 70.3163 168.737 70.793C168.737 71.274 168.83 71.6943 169.016 72.054C169.203 72.4093 169.46 72.6845 169.79 72.8795C170.123 73.0745 170.505 73.172 170.934 73.172ZM176.118 74.251V67.348H177.528V69.5515L177.151 69.3825C177.182 69.1008 177.253 68.8321 177.366 68.5765C177.478 68.3208 177.628 68.0933 177.814 67.894C178.005 67.6903 178.239 67.53 178.516 67.413C178.794 67.296 179.114 67.2375 179.478 67.2375C179.756 67.2375 179.979 67.2591 180.148 67.3025C180.321 67.3458 180.427 67.3805 180.466 67.4065L180.167 68.7325C180.124 68.7021 180.035 68.6631 179.901 68.6155C179.771 68.5678 179.589 68.544 179.355 68.544C178.999 68.544 178.705 68.6068 178.471 68.7325C178.237 68.8581 178.05 69.025 177.912 69.233C177.773 69.441 177.673 69.6685 177.613 69.9155C177.556 70.1581 177.528 70.403 177.528 70.65V74.251H176.118ZM191.567 64.6635H193.978V74.251H192.639V65.6515L192.678 65.6645L190.423 74.251H188.486L186.211 65.658L186.25 65.6385V74.251H184.904V64.6635H187.316L189.467 73.341H189.402L191.567 64.6635ZM197.249 74.251H195.839V64.6635H198.725C199.462 64.6635 200.079 64.8021 200.577 65.0795C201.08 65.3568 201.457 65.7316 201.708 66.204C201.964 66.672 202.092 67.1963 202.092 67.777C202.092 68.3576 201.962 68.8928 201.702 69.3825C201.446 69.8678 201.067 70.2578 200.564 70.5525C200.062 70.8471 199.449 70.9945 198.725 70.9945H197.249V74.251ZM197.249 70.5135L196.612 69.8245H198.562C199.022 69.8245 199.407 69.7421 199.719 69.5775C200.036 69.4085 200.274 69.1701 200.434 68.8625C200.595 68.5548 200.675 68.193 200.675 67.777C200.675 67.361 200.597 67.0078 200.441 66.7175C200.285 66.4271 200.051 66.2083 199.739 66.061C199.427 65.9093 199.035 65.8335 198.562 65.8335H196.612L197.249 65.0925V70.5135ZM207.68 69.2005C208.061 69.2135 208.373 69.3218 208.616 69.5255C208.863 69.7248 209.045 69.9913 209.162 70.325C209.283 70.6543 209.344 71.0205 209.344 71.4235C209.344 71.9738 209.24 72.4743 209.032 72.925C208.824 73.3713 208.503 73.7266 208.07 73.991C207.641 74.2553 207.091 74.3875 206.419 74.3875C205.86 74.3875 205.388 74.3138 205.002 74.1665C204.616 74.0148 204.306 73.8025 204.072 73.5295C203.843 73.2521 203.674 72.9228 203.565 72.5415C203.461 72.1601 203.409 71.7398 203.409 71.2805C203.409 71.2761 203.409 71.2718 203.409 71.2675C203.409 71.2631 203.409 71.2588 203.409 71.2545H204.826C204.826 71.2588 204.826 71.2631 204.826 71.2675C204.826 71.2718 204.826 71.2761 204.826 71.2805C204.826 71.7875 204.889 72.1818 205.015 72.4635C205.145 72.7451 205.329 72.9423 205.567 73.055C205.81 73.1633 206.1 73.2175 206.438 73.2175C206.893 73.2175 207.253 73.0701 207.517 72.7755C207.786 72.4765 207.92 72.015 207.92 71.391C207.92 71.1656 207.897 70.9555 207.849 70.7605C207.806 70.5655 207.725 70.3965 207.608 70.2535C207.491 70.1061 207.329 69.9913 207.121 69.909C206.917 69.8223 206.655 69.779 206.334 69.779H205.983V68.7065H206.334C206.646 68.7065 206.904 68.6653 207.108 68.583C207.316 68.4963 207.478 68.3815 207.595 68.2385C207.712 68.0911 207.795 67.9286 207.842 67.751C207.894 67.569 207.92 67.3826 207.92 67.192C207.92 66.672 207.788 66.2971 207.524 66.0675C207.26 65.8378 206.904 65.723 206.458 65.723C205.968 65.723 205.574 65.853 205.275 66.113C204.976 66.373 204.826 66.8453 204.826 67.53H203.409C203.409 67.101 203.468 66.7045 203.585 66.3405C203.706 65.9765 203.888 65.6601 204.131 65.3915C204.378 65.1185 204.692 64.9083 205.073 64.761C205.455 64.6136 205.908 64.54 206.432 64.54C207.099 64.54 207.647 64.657 208.076 64.891C208.505 65.125 208.824 65.437 209.032 65.827C209.24 66.217 209.344 66.6481 209.344 67.1205C209.344 67.4801 209.283 67.816 209.162 68.128C209.045 68.4356 208.863 68.687 208.616 68.882C208.373 69.077 208.061 69.1831 207.68 69.2005ZM212.033 74.4265C211.791 74.4265 211.585 74.3441 211.416 74.1795C211.251 74.0148 211.169 73.8111 211.169 73.5685C211.169 73.3301 211.251 73.1286 211.416 72.964C211.585 72.795 211.791 72.7105 212.033 72.7105C212.267 72.7105 212.469 72.795 212.638 72.964C212.807 73.1286 212.891 73.3301 212.891 73.5685C212.891 73.8111 212.807 74.0148 212.638 74.1795C212.469 74.3441 212.267 74.4265 212.033 74.4265ZM221.043 77.2865C220.93 77.1998 220.763 77.0481 220.542 76.8315C220.321 76.6191 220.081 76.331 219.821 75.967C219.561 75.6073 219.312 75.1653 219.073 74.641C218.835 74.121 218.638 73.5121 218.482 72.8145C218.33 72.1168 218.254 71.326 218.254 70.442C218.254 69.5493 218.33 68.7541 218.482 68.0565C218.638 67.3545 218.835 66.7413 219.073 66.217C219.312 65.6926 219.561 65.2506 219.821 64.891C220.081 64.527 220.321 64.2388 220.542 64.0265C220.763 63.8141 220.93 63.669 221.043 63.591L221.79 64.3775C221.652 64.4858 221.455 64.683 221.199 64.969C220.948 65.255 220.69 65.6428 220.425 66.1325C220.165 66.6178 219.944 67.218 219.762 67.933C219.58 68.6436 219.489 69.48 219.489 70.442C219.489 71.3996 219.58 72.2338 219.762 72.9445C219.944 73.6508 220.165 74.2466 220.425 74.732C220.69 75.2216 220.948 75.6095 221.199 75.8955C221.455 76.1815 221.652 76.383 221.79 76.5L221.043 77.2865ZM229.881 64.6635H232.293V74.251H230.954V65.6515L230.993 65.6645L228.737 74.251H226.8L224.525 65.658L224.564 65.6385V74.251H223.219V64.6635H225.63L227.782 73.341H227.717L229.881 64.6635ZM236.591 74.3875C236.071 74.3875 235.614 74.3051 235.219 74.1405C234.829 73.9758 234.526 73.7396 234.309 73.432C234.093 73.1243 233.984 72.7538 233.984 72.3205C233.984 71.8568 234.106 71.4733 234.348 71.17C234.595 70.8666 234.933 70.6326 235.362 70.468C235.796 70.299 236.288 70.1885 236.838 70.1365C237.657 70.0541 238.233 69.974 238.567 69.896C238.905 69.818 239.074 69.6901 239.074 69.5125C239.074 69.5081 239.074 69.5038 239.074 69.4995C239.074 69.1485 238.924 68.882 238.625 68.7C238.326 68.518 237.9 68.427 237.345 68.427C236.76 68.427 236.307 68.531 235.986 68.739C235.67 68.9426 235.512 69.2676 235.512 69.714H234.127C234.127 69.1853 234.264 68.7368 234.537 68.3685C234.814 68.0001 235.196 67.7206 235.681 67.53C236.166 67.335 236.723 67.2375 237.351 67.2375C237.928 67.2375 238.452 67.3263 238.924 67.504C239.401 67.6773 239.78 67.9373 240.062 68.284C240.344 68.6306 240.484 69.0618 240.484 69.5775C240.484 69.6685 240.484 69.7595 240.484 69.8505C240.484 69.9371 240.484 70.026 240.484 70.117V72.873C240.484 73.0333 240.491 73.1893 240.504 73.341C240.517 73.4883 240.541 73.6205 240.575 73.7375C240.614 73.8718 240.66 73.9823 240.712 74.069C240.768 74.1556 240.814 74.2163 240.848 74.251H239.444C239.418 74.225 239.379 74.1708 239.327 74.0885C239.28 74.0018 239.236 73.9021 239.197 73.7895C239.158 73.6811 239.128 73.5576 239.106 73.419C239.089 73.276 239.08 73.1221 239.08 72.9575L239.34 73.1395C239.21 73.3908 239.013 73.6096 238.749 73.796C238.489 73.9823 238.175 74.1275 237.806 74.2315C237.442 74.3355 237.037 74.3875 236.591 74.3875ZM236.883 73.2175C237.286 73.2175 237.653 73.1546 237.982 73.029C238.316 72.899 238.582 72.704 238.781 72.444C238.981 72.1796 239.08 71.8481 239.08 71.4495V70.3055L239.412 70.741C239.135 70.8493 238.794 70.9381 238.391 71.0075C237.993 71.0725 237.581 71.1266 237.156 71.17C236.571 71.222 236.132 71.3238 235.837 71.4755C235.542 71.6228 235.395 71.8698 235.395 72.2165C235.395 72.5501 235.516 72.8015 235.759 72.9705C236.006 73.1351 236.381 73.2175 236.883 73.2175ZM244.42 70.533L244.407 71.1895L241.657 67.348H243.198L245.375 70.4355L244.53 70.4225L246.656 67.348H248.17L245.518 70.988L245.531 70.4745L248.209 74.251H246.669L244.478 71.1895L245.421 71.053L243.068 74.251H241.56L244.42 70.533ZM255.803 64.6375V74.251H254.399V66.0675C254.36 66.1151 254.249 66.1758 254.067 66.2495C253.885 66.3231 253.664 66.3946 253.404 66.464C253.144 66.529 252.871 66.5766 252.585 66.607V65.411C252.867 65.3676 253.138 65.3026 253.398 65.216C253.658 65.1293 253.879 65.034 254.061 64.93C254.247 64.826 254.37 64.7285 254.431 64.6375H255.803ZM261.884 74.3875C261.151 74.3875 260.486 74.1946 259.888 73.809C259.295 73.4233 258.82 72.8643 258.465 72.132C258.114 71.3996 257.938 70.5135 257.938 69.4735C257.938 68.4291 258.118 67.5408 258.478 66.8085C258.842 66.0761 259.331 65.515 259.947 65.125C260.566 64.735 261.26 64.54 262.027 64.54C262.655 64.54 263.186 64.6461 263.619 64.8585C264.057 65.0708 264.412 65.3438 264.685 65.6775C264.963 66.0111 265.164 66.3643 265.29 66.737C265.415 67.1053 265.478 67.452 265.478 67.777C265.478 67.79 265.478 67.803 265.478 67.816C265.478 67.829 265.478 67.842 265.478 67.855H264.107C264.107 67.842 264.107 67.829 264.107 67.816C264.107 67.803 264.107 67.79 264.107 67.777C264.107 67.5343 264.063 67.2938 263.977 67.0555C263.894 66.8128 263.767 66.594 263.593 66.399C263.424 66.204 263.208 66.048 262.943 65.931C262.683 65.814 262.378 65.7555 262.027 65.7555C261.55 65.7555 261.11 65.8876 260.707 66.152C260.304 66.412 259.979 66.8171 259.732 67.3675C259.485 67.9135 259.362 68.6155 259.362 69.4735C259.362 70.1278 259.429 70.6911 259.563 71.1635C259.702 71.6315 259.89 72.015 260.129 72.314C260.367 72.6086 260.642 72.8275 260.954 72.9705C261.266 73.1135 261.6 73.185 261.955 73.185C262.432 73.185 262.824 73.1048 263.132 72.9445C263.444 72.7798 263.684 72.5761 263.853 72.3335C264.027 72.0908 264.137 71.8503 264.185 71.612V70.7345H261.988V69.6295H265.452V74.251H264.549L264.445 73.185C264.41 73.2586 264.339 73.3605 264.23 73.4905C264.122 73.6205 263.966 73.7548 263.762 73.8935C263.563 74.0321 263.307 74.1491 262.995 74.2445C262.688 74.3398 262.317 74.3875 261.884 74.3875ZM270.916 74.3875C270.379 74.3875 269.881 74.2531 269.421 73.9845C268.962 73.7115 268.589 73.3388 268.303 72.8665C268.022 72.3941 267.881 71.859 267.881 71.261C267.881 71.2436 267.881 71.2306 267.881 71.222C267.881 71.209 267.881 71.196 267.881 71.183L268.7 71.1635C268.7 71.1721 268.7 71.183 268.7 71.196C268.7 71.2046 268.7 71.2155 268.7 71.2285C268.7 71.5838 268.791 71.9045 268.973 72.1905C269.159 72.4721 269.4 72.6953 269.694 72.86C269.989 73.0246 270.305 73.107 270.643 73.107C271.198 73.107 271.664 72.9185 272.041 72.5415C272.422 72.1601 272.613 71.5751 272.613 70.7865C272.613 69.9935 272.424 69.4106 272.047 69.038C271.67 68.661 271.202 68.4725 270.643 68.4725C270.305 68.4725 269.989 68.5548 269.694 68.7195C269.4 68.8798 269.159 69.1008 268.973 69.3825C268.791 69.6598 268.7 69.9783 268.7 70.338L267.881 70.3055C267.881 69.7031 268.022 69.1723 268.303 68.713C268.589 68.2493 268.962 67.8875 269.421 67.6275C269.881 67.3675 270.379 67.2375 270.916 67.2375C271.475 67.2375 271.993 67.3761 272.47 67.6535C272.947 67.9265 273.33 68.3273 273.62 68.856C273.915 69.3846 274.062 70.0281 274.062 70.7865C274.062 71.5621 273.919 72.2186 273.633 72.756C273.347 73.2933 272.966 73.7006 272.489 73.978C272.013 74.251 271.488 74.3875 270.916 74.3875ZM267.283 74.251V64.0915H268.7V74.251H267.283ZM275.994 77.2865L275.247 76.5C275.39 76.383 275.587 76.1815 275.838 75.8955C276.09 75.6095 276.345 75.2216 276.605 74.732C276.87 74.2466 277.093 73.6508 277.275 72.9445C277.457 72.2338 277.548 71.3996 277.548 70.442C277.548 69.48 277.457 68.6436 277.275 67.933C277.093 67.218 276.87 66.6178 276.605 66.1325C276.345 65.6428 276.09 65.255 275.838 64.969C275.587 64.683 275.39 64.4858 275.247 64.3775L275.994 63.591C276.107 63.669 276.274 63.8141 276.495 64.0265C276.716 64.2388 276.956 64.527 277.216 64.891C277.476 65.2506 277.725 65.6926 277.964 66.217C278.202 66.7413 278.397 67.3545 278.549 68.0565C278.705 68.7541 278.783 69.5493 278.783 70.442C278.783 71.326 278.705 72.1168 278.549 72.8145C278.397 73.5121 278.202 74.121 277.964 74.641C277.725 75.1653 277.476 75.6073 277.216 75.967C276.956 76.331 276.716 76.6191 276.495 76.8315C276.274 77.0481 276.107 77.1998 275.994 77.2865Z" fill="#888888"/>
<path d="M148.5 4.51758H170.5V20.5176H148.5V4.51758Z" stroke="#14142B" stroke-width="2"/>
<path d="M148.5 19.5176L163.25 9.51758L170.5 13.5176" stroke="#14142B" stroke-width="2"/>
<circle cx="153.5" cy="9.51758" r="1" stroke="#14142B" stroke-width="2"/>
</svg>
