<svg width="338" height="27" viewBox="0 0 338 27" fill="none" xmlns="http://www.w3.org/2000/svg">
<path d="M11.9865 2.77377H6.50711L6.80294 2.23354V20.8584H5.79967V2.23354L6.13409 2.77377H0.628957V1.88626H11.9865V2.77377ZM25.8509 20.8584V15.6234C25.8509 15.349 25.8509 15.036 25.8509 14.6844C25.8509 14.3328 25.8509 13.9813 25.8509 13.6297C25.8509 13.2695 25.8509 12.948 25.8509 12.665C25.8509 11.173 25.5121 10.0153 24.8347 9.19214C24.1573 8.36894 23.1369 7.95734 21.7735 7.95734C20.8559 7.95734 20.0327 8.15885 19.3039 8.56188C18.575 8.95633 18.0005 9.4794 17.5803 10.1311C17.1601 10.7742 16.95 11.4645 16.95 12.202L16.2297 12.009C16.2297 11.1429 16.4698 10.3326 16.95 9.57801C17.4302 8.81484 18.0991 8.19744 18.9566 7.72582C19.8141 7.25419 20.8002 7.01838 21.9149 7.01838C23.5356 7.01838 24.7618 7.51573 25.5936 8.51043C26.4254 9.49655 26.8413 10.86 26.8413 12.6007C26.8413 13.0552 26.8413 13.5697 26.8413 14.1442C26.8413 14.7101 26.8413 15.2632 26.8413 15.8034V20.8584H25.8509ZM15.9725 20.8584V0.754357H16.95V20.8584H15.9725ZM31.7025 14.4786V13.5911H43.2658L43.0214 13.8226C43.0214 13.7712 43.0214 13.7283 43.0214 13.694C43.0214 13.6597 43.0214 13.6254 43.0214 13.5911C43.0214 12.605 42.8114 11.6832 42.3912 10.8257C41.971 9.9596 41.3665 9.26074 40.5776 8.72909C39.7973 8.18887 38.8583 7.91875 37.7607 7.91875C36.6545 7.91875 35.6727 8.18887 34.8152 8.72909C33.9577 9.26931 33.2846 10.0025 32.7958 10.9286C32.307 11.8547 32.0626 12.8965 32.0626 14.0542C32.0626 15.2461 32.307 16.3051 32.7958 17.2312C33.2846 18.1487 33.9577 18.8733 34.8152 19.4049C35.6813 19.928 36.6631 20.1896 37.7607 20.1896C38.6182 20.1896 39.3599 20.0695 39.9859 19.8294C40.6119 19.5807 41.1307 19.2677 41.5423 18.8904C41.9539 18.5131 42.2668 18.1187 42.4812 17.7071C42.7042 17.2955 42.8328 16.9182 42.8671 16.5752H43.8704C43.8275 17.0382 43.6689 17.5313 43.3945 18.0544C43.1201 18.5775 42.7299 19.0705 42.224 19.5336C41.718 19.988 41.0921 20.361 40.3461 20.6526C39.6 20.9441 38.734 21.0899 37.7478 21.0899C36.4702 21.0899 35.3297 20.7941 34.3264 20.2024C33.3317 19.6022 32.5428 18.7747 31.9597 17.72C31.3852 16.6652 31.0979 15.4519 31.0979 14.0799C31.0979 12.6993 31.3852 11.4817 31.9597 10.4269C32.5428 9.36364 33.336 8.53186 34.3393 7.93162C35.3426 7.32279 36.483 7.01838 37.7607 7.01838C39.0469 7.01838 40.1617 7.33137 41.1049 7.95734C42.0482 8.57474 42.7771 9.40222 43.2916 10.4398C43.8146 11.4774 44.0762 12.6221 44.0762 13.8741C44.0762 13.9598 44.0719 14.067 44.0633 14.1956C44.0633 14.3243 44.059 14.4186 44.0504 14.4786H31.7025ZM51.8507 20.8584H50.2944V1.88626H52.8926L61.7677 19.9323L61.6262 20.0095V1.88626H63.1826V20.8584H60.5458L51.6964 2.83808L51.8507 2.7609V20.8584ZM67.8985 14.6973V13.2695H78.9602L78.6515 13.7069C78.6515 13.6554 78.6515 13.6125 78.6515 13.5782C78.6515 13.5354 78.6515 13.4925 78.6515 13.4496C78.6515 12.5664 78.4628 11.7432 78.0855 10.98C77.7082 10.2168 77.1594 9.60374 76.4391 9.14069C75.7274 8.67764 74.8571 8.44611 73.8281 8.44611C72.7819 8.44611 71.8601 8.68621 71.0626 9.16641C70.2652 9.63804 69.6435 10.294 69.1976 11.1344C68.7517 11.9661 68.5287 12.9351 68.5287 14.0413C68.5287 15.156 68.7474 16.1379 69.1847 16.9868C69.6306 17.8271 70.2523 18.4831 71.0498 18.9548C71.8472 19.4178 72.7776 19.6493 73.8409 19.6493C74.6212 19.6493 75.2987 19.555 75.8732 19.3664C76.4563 19.1691 76.9365 18.9119 77.3138 18.5946C77.6997 18.2773 77.9912 17.9429 78.1884 17.5913C78.3942 17.2312 78.5143 16.8925 78.5486 16.5752H80.1307C80.0964 17.0811 79.9334 17.5999 79.6419 18.1316C79.3589 18.6546 78.9516 19.1434 78.42 19.5979C77.8969 20.0524 77.2452 20.4211 76.4649 20.704C75.6931 20.9784 74.8013 21.1156 73.7895 21.1156C72.4689 21.1156 71.2942 20.8155 70.2652 20.2153C69.2447 19.615 68.4387 18.7875 67.847 17.7328C67.2639 16.6695 66.9724 15.4476 66.9724 14.067C66.9724 12.6779 67.2682 11.4559 67.8599 10.4012C68.4516 9.33791 69.2619 8.50614 70.2909 7.90589C71.3199 7.30564 72.4904 7.00552 73.8023 7.00552C75.14 7.00552 76.2977 7.30993 77.2752 7.91875C78.2528 8.52758 79.0074 9.35506 79.539 10.4012C80.0706 11.4388 80.3365 12.605 80.3365 13.8998C80.3365 14.0113 80.3322 14.1528 80.3236 14.3243C80.3236 14.4958 80.3193 14.6201 80.3107 14.6973H67.8985ZM94.8068 20.8584L90.8323 7.19846H92.2729L96.0544 20.0867H95.7586L98.4082 7.19846H100.068L96.9934 20.8584H94.8068ZM85.803 20.8584L82.6903 7.19846H84.3496L87.0378 20.0867H86.742L90.485 7.19846H91.9256L88.0025 20.8584H85.803ZM120.57 14.1442C120.57 14.9331 120.425 15.7348 120.133 16.5495C119.841 17.3641 119.4 18.1187 118.808 18.8133C118.216 19.5078 117.47 20.0695 116.57 20.4982C115.67 20.9184 114.611 21.1285 113.393 21.1285C111.738 21.1285 110.327 20.7126 109.161 19.8809C108.004 19.0405 107.12 17.8872 106.512 16.4208C105.903 14.9545 105.598 13.2738 105.598 11.3788C105.598 9.47511 105.903 7.79442 106.512 6.33667C107.12 4.87035 108.004 3.7213 109.161 2.88953C110.327 2.05775 111.738 1.64187 113.393 1.64187C114.774 1.64187 115.948 1.91198 116.917 2.4522C117.895 2.99243 118.671 3.687 119.245 4.53592C119.829 5.38485 120.214 6.26807 120.403 7.18559C120.515 7.68294 120.57 8.15457 120.57 8.60046H117.766C117.766 8.36036 117.745 8.09883 117.702 7.81585C117.608 7.12985 117.376 6.49959 117.007 5.92507C116.647 5.35055 116.163 4.89179 115.554 4.54879C114.954 4.20579 114.233 4.03429 113.393 4.03429C112.415 4.03429 111.554 4.30869 110.808 4.85749C110.062 5.39771 109.479 6.21233 109.058 7.30136C108.647 8.39038 108.441 9.74951 108.441 11.3788C108.441 12.9994 108.647 14.3586 109.058 15.4562C109.479 16.5452 110.062 17.3684 110.808 17.9258C111.554 18.4746 112.415 18.749 113.393 18.749C114.105 18.749 114.731 18.6203 115.271 18.3631C115.811 18.1058 116.266 17.7585 116.634 17.3212C117.003 16.8839 117.282 16.3908 117.47 15.842C117.668 15.2932 117.766 14.7273 117.766 14.1442H120.57ZM123.87 20.8584V7.19846H126.661V11.5588L125.915 11.2244C125.975 10.667 126.116 10.1354 126.339 9.62946C126.562 9.12354 126.858 8.67335 127.227 8.2789C127.604 7.87588 128.067 7.5586 128.616 7.32708C129.165 7.09556 129.799 6.97979 130.52 6.97979C131.068 6.97979 131.51 7.02267 131.844 7.10842C132.187 7.19417 132.398 7.26277 132.475 7.31422L131.883 9.93816C131.797 9.87814 131.621 9.80096 131.356 9.70664C131.098 9.61231 130.738 9.56515 130.275 9.56515C129.572 9.56515 128.989 9.68949 128.526 9.93816C128.063 10.1868 127.694 10.517 127.42 10.9286C127.145 11.3402 126.948 11.7904 126.828 12.2791C126.717 12.7593 126.661 13.2438 126.661 13.7326V20.8584H123.87ZM135.719 15.006V12.8322H145.777L145.391 13.4753C145.391 13.4239 145.391 13.3724 145.391 13.321C145.391 13.261 145.391 13.2095 145.391 13.1666C145.391 12.4721 145.241 11.8332 144.941 11.2501C144.641 10.6585 144.191 10.1868 143.591 9.83526C142.999 9.47511 142.257 9.29504 141.365 9.29504C140.474 9.29504 139.689 9.48797 139.012 9.87385C138.343 10.2511 137.82 10.7914 137.442 11.4945C137.074 12.1891 136.889 13.0252 136.889 14.0027C136.889 14.9974 137.069 15.8549 137.43 16.5752C137.79 17.2869 138.309 17.8357 138.986 18.2216C139.663 18.6075 140.474 18.8004 141.417 18.8004C142.077 18.8004 142.647 18.7361 143.128 18.6075C143.616 18.4703 144.015 18.2902 144.324 18.0672C144.641 17.8443 144.881 17.6042 145.044 17.3469C145.207 17.0811 145.301 16.8196 145.327 16.5623H148.105C148.054 17.1197 147.87 17.6728 147.552 18.2216C147.244 18.7618 146.802 19.2549 146.227 19.7008C145.662 20.1381 144.967 20.4897 144.144 20.7555C143.329 21.0127 142.39 21.1414 141.327 21.1414C139.903 21.1414 138.656 20.8412 137.584 20.241C136.512 19.6408 135.676 18.809 135.076 17.7457C134.475 16.6738 134.175 15.4476 134.175 14.067C134.175 12.6607 134.48 11.4259 135.089 10.3626C135.697 9.29933 136.542 8.47184 137.623 7.88017C138.703 7.27992 139.942 6.97979 141.34 6.97979C142.763 6.97979 143.994 7.27992 145.031 7.88017C146.077 8.48041 146.883 9.3079 147.449 10.3626C148.015 11.4173 148.298 12.6307 148.298 14.0027C148.298 14.1656 148.294 14.3543 148.285 14.5687C148.277 14.783 148.264 14.9288 148.247 15.006H135.719ZM156.4 21.1285C155.371 21.1285 154.466 20.9656 153.686 20.6397C152.914 20.3139 152.314 19.8466 151.885 19.2377C151.457 18.6289 151.242 17.8957 151.242 17.0382C151.242 16.1207 151.482 15.3618 151.963 14.7616C152.451 14.1613 153.12 13.6983 153.969 13.3724C154.827 13.038 155.8 12.8194 156.889 12.7165C158.51 12.5535 159.65 12.3949 160.31 12.2405C160.979 12.0862 161.314 11.8332 161.314 11.4817C161.314 11.4731 161.314 11.4645 161.314 11.4559C161.314 10.7614 161.018 10.234 160.426 9.87385C159.834 9.5137 158.99 9.33363 157.892 9.33363C156.735 9.33363 155.838 9.53942 155.204 9.95102C154.578 10.354 154.265 10.9972 154.265 11.8804H151.525C151.525 10.8342 151.795 9.94674 152.336 9.21786C152.884 8.48899 153.639 7.9359 154.599 7.5586C155.56 7.17273 156.662 6.97979 157.905 6.97979C159.045 6.97979 160.083 7.15558 161.018 7.50715C161.961 7.85015 162.711 8.36465 163.269 9.05065C163.826 9.73665 164.105 10.5899 164.105 11.6103C164.105 11.7904 164.105 11.9704 164.105 12.1505C164.105 12.322 164.105 12.4978 164.105 12.6779V18.1316C164.105 18.4488 164.118 18.7575 164.143 19.0577C164.169 19.3492 164.216 19.6107 164.285 19.8423C164.362 20.1081 164.452 20.3267 164.555 20.4982C164.666 20.6697 164.756 20.7898 164.825 20.8584H162.047C161.995 20.8069 161.918 20.6998 161.815 20.5368C161.721 20.3653 161.635 20.1681 161.558 19.9452C161.481 19.7308 161.421 19.4864 161.378 19.212C161.344 18.929 161.326 18.6246 161.326 18.2988L161.841 18.6589C161.584 19.1563 161.194 19.5893 160.67 19.958C160.156 20.3267 159.534 20.614 158.805 20.8198C158.085 21.0256 157.283 21.1285 156.4 21.1285ZM156.979 18.8133C157.776 18.8133 158.501 18.6889 159.153 18.4403C159.813 18.183 160.34 17.7971 160.735 17.2826C161.129 16.7596 161.326 16.1036 161.326 15.3147V13.0509L161.982 13.9127C161.434 14.127 160.76 14.3028 159.963 14.44C159.174 14.5687 158.359 14.6758 157.519 14.7616C156.362 14.8645 155.491 15.066 154.908 15.3661C154.325 15.6577 154.033 16.1464 154.033 16.8324C154.033 17.4927 154.274 17.9901 154.754 18.3245C155.242 18.6503 155.984 18.8133 156.979 18.8133ZM173.239 21.0899C172.784 21.0899 172.33 21.0428 171.875 20.9484C171.429 20.8541 171.018 20.6826 170.64 20.4339C170.272 20.1767 169.976 19.8123 169.753 19.3406C169.53 18.869 169.419 18.2516 169.419 17.4884C169.419 17.3084 169.419 17.1197 169.419 16.9225C169.419 16.7253 169.419 16.5237 169.419 16.3179V9.5137H166.139V7.19846H167.862C168.231 7.19846 168.518 7.18559 168.724 7.15987C168.938 7.12557 169.093 7.05268 169.187 6.94121C169.29 6.82116 169.354 6.63251 169.38 6.37526C169.406 6.11801 169.419 5.76643 169.419 5.32053V2.68373H172.21V7.19846H176.39V9.5137H172.21V15.5719C172.21 15.7434 172.21 15.9149 172.21 16.0864C172.21 16.2579 172.21 16.4166 172.21 16.5623C172.21 17.2483 172.291 17.7886 172.454 18.183C172.626 18.5775 173.011 18.7747 173.612 18.7747C173.869 18.7747 174.113 18.7532 174.345 18.7104C174.576 18.6675 174.752 18.6203 174.872 18.5689V20.8455C174.718 20.9056 174.499 20.9613 174.216 21.0127C173.933 21.0642 173.607 21.0899 173.239 21.0899ZM179.352 20.8584V7.19846H182.104V20.8584H179.352ZM180.741 4.36871C180.261 4.36871 179.845 4.24009 179.493 3.98284C179.15 3.71701 178.979 3.35258 178.979 2.88953C178.979 2.43505 179.15 2.07919 179.493 1.82194C179.845 1.55612 180.261 1.42321 180.741 1.42321C181.212 1.42321 181.62 1.55612 181.963 1.82194C182.314 2.07919 182.49 2.43505 182.49 2.88953C182.49 3.35258 182.314 3.71701 181.963 3.98284C181.62 4.24009 181.212 4.36871 180.741 4.36871ZM197.537 7.19846L193.113 20.8584H189.408L184.868 7.19846H187.749L191.479 19.6879H191.042L194.656 7.19846H197.537ZM200.539 15.006V12.8322H210.597L210.211 13.4753C210.211 13.4239 210.211 13.3724 210.211 13.321C210.211 13.261 210.211 13.2095 210.211 13.1666C210.211 12.4721 210.061 11.8332 209.761 11.2501C209.461 10.6585 209.011 10.1868 208.41 9.83526C207.819 9.47511 207.077 9.29504 206.185 9.29504C205.293 9.29504 204.509 9.48797 203.831 9.87385C203.163 10.2511 202.64 10.7914 202.262 11.4945C201.894 12.1891 201.709 13.0252 201.709 14.0027C201.709 14.9974 201.889 15.8549 202.249 16.5752C202.61 17.2869 203.128 17.8357 203.806 18.2216C204.483 18.6075 205.293 18.8004 206.237 18.8004C206.897 18.8004 207.467 18.7361 207.947 18.6075C208.436 18.4703 208.835 18.2902 209.144 18.0672C209.461 17.8443 209.701 17.6042 209.864 17.3469C210.027 17.0811 210.121 16.8196 210.147 16.5623H212.925C212.874 17.1197 212.689 17.6728 212.372 18.2216C212.063 18.7618 211.622 19.2549 211.047 19.7008C210.481 20.1381 209.787 20.4897 208.964 20.7555C208.149 21.0127 207.21 21.1414 206.147 21.1414C204.723 21.1414 203.476 20.8412 202.404 20.241C201.332 19.6408 200.496 18.809 199.896 17.7457C199.295 16.6738 198.995 15.4476 198.995 14.067C198.995 12.6607 199.3 11.4259 199.908 10.3626C200.517 9.29933 201.362 8.47184 202.442 7.88017C203.523 7.27992 204.762 6.97979 206.16 6.97979C207.583 6.97979 208.814 7.27992 209.851 7.88017C210.897 8.48041 211.703 9.3079 212.269 10.3626C212.835 11.4173 213.118 12.6307 213.118 14.0027C213.118 14.1656 213.114 14.3543 213.105 14.5687C213.097 14.783 213.084 14.9288 213.067 15.006H200.539ZM221.786 4.97325L223.587 3.0696V10.9286L222.686 9.79667H229.683V12.8837H222.686L223.587 11.7518V19.6751L221.786 17.7714H231.111V20.8584H219.574V1.88626H231.111V4.97325H221.786ZM240.341 21.1671C238.84 21.1671 237.524 20.867 236.392 20.2667C235.26 19.6579 234.381 18.8133 233.755 17.7328C233.138 16.6524 232.829 15.4047 232.829 13.9898C232.829 12.5578 233.138 11.3187 233.755 10.2726C234.381 9.21786 235.26 8.39895 236.392 7.81585C237.524 7.23276 238.84 6.94121 240.341 6.94121C241.464 6.94121 242.459 7.10842 243.325 7.44284C244.191 7.76869 244.915 8.20173 245.498 8.74195C246.082 9.28218 246.523 9.87385 246.823 10.517C247.123 11.1601 247.273 11.7989 247.273 12.4335C247.273 12.4421 247.273 12.4592 247.273 12.4849C247.273 12.5021 247.273 12.5192 247.273 12.5364H243.325C243.325 12.4849 243.32 12.4378 243.312 12.3949C243.312 12.3434 243.303 12.292 243.286 12.2405C243.217 11.8804 243.067 11.5417 242.836 11.2244C242.604 10.9071 242.279 10.6499 241.858 10.4527C241.447 10.2469 240.932 10.144 240.315 10.144C239.655 10.144 239.063 10.2897 238.54 10.5813C238.025 10.8728 237.618 11.3059 237.318 11.8804C237.018 12.4463 236.868 13.1495 236.868 13.9898C236.868 14.813 237.018 15.5248 237.318 16.125C237.618 16.7167 238.025 17.1712 238.54 17.4884C239.063 17.8057 239.655 17.9643 240.315 17.9643C240.992 17.9643 241.545 17.8614 241.974 17.6556C242.403 17.4413 242.724 17.1583 242.939 16.8067C243.153 16.4466 243.282 16.0521 243.325 15.6234H247.273C247.273 16.2579 247.123 16.9053 246.823 17.5656C246.532 18.2173 246.094 18.8133 245.511 19.3535C244.937 19.8937 244.216 20.331 243.35 20.6655C242.484 20.9999 241.481 21.1671 240.341 21.1671ZM256.863 21.1542C255.389 21.1542 254.089 20.8498 252.966 20.241C251.843 19.6322 250.964 18.7961 250.329 17.7328C249.703 16.6609 249.39 15.4261 249.39 14.0284C249.39 12.6393 249.703 11.4131 250.329 10.3498C250.964 9.27789 251.843 8.44611 252.966 7.85444C254.089 7.25419 255.389 6.95407 256.863 6.95407C258.338 6.95407 259.637 7.25419 260.761 7.85444C261.884 8.44611 262.759 9.27789 263.385 10.3498C264.019 11.4131 264.337 12.6393 264.337 14.0284C264.337 15.4261 264.019 16.6609 263.385 17.7328C262.759 18.7961 261.884 19.6322 260.761 20.241C259.637 20.8498 258.338 21.1542 256.863 21.1542ZM256.863 17.9901C257.558 17.9901 258.163 17.8271 258.677 17.5013C259.192 17.1754 259.59 16.7167 259.873 16.125C260.156 15.5248 260.298 14.8259 260.298 14.0284C260.298 13.231 260.156 12.5407 259.873 11.9576C259.59 11.3659 259.192 10.9114 258.677 10.5941C258.163 10.2769 257.558 10.1182 256.863 10.1182C256.177 10.1182 255.573 10.2769 255.05 10.5941C254.535 10.9114 254.137 11.3659 253.854 11.9576C253.571 12.5407 253.429 13.231 253.429 14.0284C253.429 14.8259 253.571 15.5248 253.854 16.125C254.137 16.7167 254.535 17.1754 255.05 17.5013C255.573 17.8271 256.177 17.9901 256.863 17.9901ZM276.706 20.8584V15.0574C276.706 14.7316 276.706 14.4357 276.706 14.1699C276.706 13.9041 276.706 13.664 276.706 13.4496C276.706 12.8837 276.633 12.3692 276.487 11.9061C276.341 11.4345 276.08 11.0572 275.702 10.7742C275.325 10.4912 274.78 10.3498 274.069 10.3498C273.451 10.3498 272.915 10.4912 272.461 10.7742C272.015 11.0572 271.672 11.4516 271.432 11.9576C271.192 12.4635 271.072 13.0466 271.072 13.7069L269.966 12.9094C269.966 11.726 270.223 10.6885 270.737 9.79667C271.252 8.90488 271.946 8.20602 272.821 7.70009C273.704 7.19417 274.682 6.94121 275.754 6.94121C276.877 6.94121 277.799 7.16844 278.519 7.62292C279.248 8.06882 279.788 8.69479 280.14 9.50084C280.5 10.2983 280.68 11.233 280.68 12.3049C280.68 12.7422 280.68 13.231 280.68 13.7712C280.68 14.3114 280.68 14.8645 280.68 15.4304V20.8584H276.706ZM267.084 20.8584V7.19846H271.072V20.8584H267.084ZM290.765 21.1542C289.29 21.1542 287.991 20.8498 286.868 20.241C285.744 19.6322 284.866 18.7961 284.231 17.7328C283.605 16.6609 283.292 15.4261 283.292 14.0284C283.292 12.6393 283.605 11.4131 284.231 10.3498C284.866 9.27789 285.744 8.44611 286.868 7.85444C287.991 7.25419 289.29 6.95407 290.765 6.95407C292.24 6.95407 293.539 7.25419 294.662 7.85444C295.786 8.44611 296.66 9.27789 297.286 10.3498C297.921 11.4131 298.238 12.6393 298.238 14.0284C298.238 15.4261 297.921 16.6609 297.286 17.7328C296.66 18.7961 295.786 19.6322 294.662 20.241C293.539 20.8498 292.24 21.1542 290.765 21.1542ZM290.765 17.9901C291.46 17.9901 292.064 17.8271 292.579 17.5013C293.093 17.1754 293.492 16.7167 293.775 16.125C294.058 15.5248 294.199 14.8259 294.199 14.0284C294.199 13.231 294.058 12.5407 293.775 11.9576C293.492 11.3659 293.093 10.9114 292.579 10.5941C292.064 10.2769 291.46 10.1182 290.765 10.1182C290.079 10.1182 289.475 10.2769 288.951 10.5941C288.437 10.9114 288.038 11.3659 287.755 11.9576C287.472 12.5407 287.331 13.231 287.331 14.0284C287.331 14.8259 287.472 15.5248 287.755 16.125C288.038 16.7167 288.437 17.1754 288.951 17.5013C289.475 17.8271 290.079 17.9901 290.765 17.9901ZM309.514 20.8584V15.5719C309.514 15.066 309.514 14.6287 309.514 14.26C309.514 13.8827 309.514 13.5697 309.514 13.321C309.514 12.9694 309.492 12.6221 309.45 12.2791C309.415 11.9361 309.33 11.6189 309.192 11.3273C309.064 11.0272 308.862 10.7914 308.588 10.6199C308.313 10.4398 307.94 10.3498 307.469 10.3498C307.031 10.3498 306.654 10.4441 306.337 10.6327C306.02 10.8128 305.758 11.0658 305.552 11.3916C305.355 11.7089 305.209 12.0776 305.115 12.4978C305.021 12.9094 304.973 13.3424 304.973 13.7969L303.88 12.8965C303.88 11.7389 304.09 10.7142 304.51 9.8224C304.931 8.92203 305.527 8.21888 306.298 7.71295C307.079 7.19846 308 6.94121 309.064 6.94121C310.204 6.94121 311.092 7.18559 311.726 7.67437C312.369 8.15457 312.82 8.79769 313.077 9.60374C313.343 10.4012 313.476 11.2844 313.476 12.2534C313.476 12.6221 313.476 13.1195 313.476 13.7455C313.476 14.3714 313.476 15.1217 313.476 15.9964V20.8584H309.514ZM300.986 20.8584V7.19846H304.973V20.8584H300.986ZM318.003 20.8584V15.5848C318.003 15.0617 318.003 14.6115 318.003 14.2342C318.003 13.8569 318.003 13.5439 318.003 13.2953C318.003 12.918 317.982 12.5578 317.939 12.2148C317.896 11.8632 317.806 11.546 317.669 11.263C317.532 10.98 317.326 10.7571 317.051 10.5941C316.777 10.4312 316.404 10.3498 315.932 10.3498C315.495 10.3498 315.118 10.4441 314.8 10.6327C314.492 10.8128 314.239 11.0615 314.042 11.3788C313.844 11.696 313.699 12.0562 313.604 12.4592C313.518 12.8622 313.476 13.2824 313.476 13.7197L312.382 12.8322C312.382 11.6917 312.588 10.6799 313 9.79667C313.42 8.91345 314.012 8.21888 314.775 7.71295C315.546 7.19846 316.468 6.94121 317.54 6.94121C318.655 6.94121 319.534 7.17702 320.177 7.64864C320.829 8.12027 321.292 8.75053 321.566 9.53942C321.849 10.3197 321.991 11.1944 321.991 12.1634C321.991 12.5492 321.991 13.0466 321.991 13.6554C321.991 14.2642 321.991 15.006 321.991 15.8806V20.8584H318.003ZM325.94 26.7623C325.511 26.7623 325.125 26.7451 324.782 26.7108C324.448 26.6851 324.238 26.6551 324.152 26.6208V23.5981C324.263 23.6496 324.456 23.6881 324.731 23.7139C325.014 23.7482 325.314 23.7653 325.631 23.7653C326.051 23.7653 326.428 23.6796 326.763 23.5081C327.106 23.3451 327.397 23.1093 327.638 22.8006C327.886 22.5005 328.079 22.1446 328.216 21.733L328.448 21.0385L323.74 7.19846H327.895L330.866 18.4017H330.403L333.258 7.19846H337.362L332.667 21.5401C332.315 22.6206 331.882 23.5509 331.368 24.3313C330.853 25.1116 330.167 25.7118 329.31 26.132C328.452 26.5522 327.329 26.7623 325.94 26.7623Z" fill="#222222"/>
</svg>
